<svg xmlns="http://www.w3.org/2000/svg" width="800" height="826.1408620619522" data-software-used-string="@tscircuit/core@0.0.1081"><style></style><rect class="boundary" x="0" y="0" fill="#0e1015" width="800" height="826.1408620619522" data-type="pcb_background" data-pcb-layer="global"/><rect class="pcb-boundary" fill="none" stroke="#fff" stroke-width="0.3" x="72.72722380168534" y="75.10366420862113" width="654.5455523966293" height="675.9335336447101" data-type="pcb_boundary" data-pcb-layer="global"/><rect class="pcb-pad" fill="rgb(200, 52, 52)" x="610.9020617567927" y="75.10366420862114" width="43.63624700834263" height="90.18194660487168" data-type="pcb_smtpad" data-pcb-layer="top"/><rect class="pcb-pad" fill="rgb(200, 52, 52)" x="552.7314827079097" y="75.10366420862114" width="43.63624700834263" height="90.18194660487168" data-type="pcb_smtpad" data-pcb-layer="top"/><rect class="pcb-pad" fill="rgb(200, 52, 52)" x="516.3688671700239" y="75.10366420862114" width="21.818123504171314" height="90.18194660487168" data-type="pcb_smtpad" data-pcb-layer="top"/><rect class="pcb-pad" fill="rgb(200, 52, 52)" x="479.9960916389972" y="75.10366420862114" width="21.818123504171314" height="90.18194660487168" data-type="pcb_smtpad" data-pcb-layer="top"/><rect class="pcb-pad" fill="rgb(200, 52, 52)" x="443.6417888227942" y="75.10366420862114" width="21.818123504171314" height="90.18194660487168" data-type="pcb_smtpad" data-pcb-layer="top"/><rect class="pcb-pad" fill="rgb(200, 52, 52)" x="407.2690132917508" y="75.10366420862114" width="21.818123504171314" height="90.18194660487168" data-type="pcb_smtpad" data-pcb-layer="top"/><rect class="pcb-pad" fill="rgb(200, 52, 52)" x="370.9147104755726" y="75.10366420862114" width="21.818123504171314" height="90.18194660487168" data-type="pcb_smtpad" data-pcb-layer="top"/><rect class="pcb-pad" fill="rgb(200, 52, 52)" x="334.541934944521" y="75.10366420862114" width="21.818123504171314" height="90.18194660487168" data-type="pcb_smtpad" data-pcb-layer="top"/><rect class="pcb-pad" fill="rgb(200, 52, 52)" x="298.1876321283097" y="75.10366420862114" width="21.818123504171314" height="90.18194660487168" data-type="pcb_smtpad" data-pcb-layer="top"/><rect class="pcb-pad" fill="rgb(200, 52, 52)" x="261.81485659728287" y="75.10366420862114" width="21.818123504171314" height="90.18194660487168" data-type="pcb_smtpad" data-pcb-layer="top"/><rect class="pcb-pad" fill="rgb(200, 52, 52)" x="203.63411755522583" y="75.10366420862114" width="43.63624700834263" height="90.18194660487168" data-type="pcb_smtpad" data-pcb-layer="top"/><rect class="pcb-pad" fill="rgb(200, 52, 52)" x="145.46353850634284" y="75.10366420862114" width="43.63624700834263" height="90.18194660487168" data-type="pcb_smtpad" data-pcb-layer="top"/><path class="pcb-silkscreen pcb-silkscreen-top" d="M 72.72722380168534 388.66968599147054 L 72.72722380168534 256.8188365093173" fill="none" stroke="#f2eda1" stroke-width="7.272722380168533" stroke-linecap="round" stroke-linejoin="round" data-pcb-component-id="pcb_component_0" data-pcb-silkscreen-path-id="pcb_silkscreen_path_0" data-type="pcb_silkscreen_path" data-pcb-layer="top"/><path class="pcb-silkscreen pcb-silkscreen-top" d="M 727.2727761983147 388.66968599147054 L 727.2727761983147 256.8188365093173" fill="none" stroke="#f2eda1" stroke-width="7.272722380168533" stroke-linecap="round" stroke-linejoin="round" data-pcb-component-id="pcb_component_0" data-pcb-silkscreen-path-id="pcb_silkscreen_path_1" data-type="pcb_silkscreen_path" data-pcb-layer="top"/><path class="pcb-silkscreen pcb-silkscreen-top" d="M 72.72722380168534 660.5640339898239 L 72.72722380168534 549.914319336003" fill="none" stroke="#f2eda1" stroke-width="7.272722380168533" stroke-linecap="round" stroke-linejoin="round" data-pcb-component-id="pcb_component_0" data-pcb-silkscreen-path-id="pcb_silkscreen_path_2" data-type="pcb_silkscreen_path" data-pcb-layer="top"/><path class="pcb-silkscreen pcb-silkscreen-top" d="M 727.2727761983147 660.5640339898239 L 727.2727761983147 549.914319336003" fill="none" stroke="#f2eda1" stroke-width="7.272722380168533" stroke-linecap="round" stroke-linejoin="round" data-pcb-component-id="pcb_component_0" data-pcb-silkscreen-path-id="pcb_silkscreen_path_3" data-type="pcb_silkscreen_path" data-pcb-layer="top"/><path class="pcb-silkscreen pcb-silkscreen-top" d="M 727.2727761983147 660.5640339898239 L 72.72722380168534 660.5640339898239" fill="none" stroke="#f2eda1" stroke-width="7.272722380168533" stroke-linecap="round" stroke-linejoin="round" data-pcb-component-id="pcb_component_0" data-pcb-silkscreen-path-id="pcb_silkscreen_path_4" data-type="pcb_silkscreen_path" data-pcb-layer="top"/><g data-type="pcb_plated_hole" data-pcb-layer="through"><path class="pcb-hole-outer" fill="rgb(200, 52, 52)" d="M36.36353917361886,-39.99989309098075 v79.9997861819615 a36.36353917361886,36.36353917361886 0 0 1 -72.72707834723772,0 v-79.9997861819615 a36.36353917361886,36.36353917361886 0 0 1 72.72707834723772,0 z" transform="translate(85.8169895413032 165.28653444923287)" data-type="pcb_plated_hole" data-pcb-layer="top"/><path class="pcb-hole-inner" fill="#FF26E2" d="M21.818123504171314,-39.99989309098075 v79.9997861819615 a21.818123504171314,21.818123504171314 0 0 1 -43.63624700834263,0 v-79.9997861819615 a21.818123504171314,21.818123504171314 0 0 1 43.63624700834263,0 z" transform="translate(85.8169895413032 165.28653444923287)" data-type="pcb_plated_hole_drill" data-pcb-layer="drill"/></g><g data-type="pcb_plated_hole" data-pcb-layer="through"><path class="pcb-hole-outer" fill="rgb(200, 52, 52)" d="M36.36353917361886,-29.090831338895086 v58.18166267779017 a36.36353917361886,36.36353917361886 0 0 1 -72.72707834723772,0 v-58.18166267779017 a36.36353917361886,36.36353917361886 0 0 1 72.72707834723772,0 z" transform="translate(85.8169895413032 469.29200266373266)" data-type="pcb_plated_hole" data-pcb-layer="top"/><path class="pcb-hole-inner" fill="#FF26E2" d="M21.818123504171314,-29.090831338895097 v58.18166267779019 a21.818123504171314,21.818123504171314 0 0 1 -43.63624700834263,0 v-58.18166267779019 a21.818123504171314,21.818123504171314 0 0 1 43.63624700834263,0 z" transform="translate(85.8169895413032 469.29200266373266)" data-type="pcb_plated_hole_drill" data-pcb-layer="drill"/></g><g data-type="pcb_plated_hole" data-pcb-layer="through"><path class="pcb-hole-outer" fill="rgb(200, 52, 52)" d="M36.36353917361886,-29.090831338895086 v58.18166267779017 a36.36353917361886,36.36353917361886 0 0 1 -72.72707834723772,0 v-58.18166267779017 a36.36353917361886,36.36353917361886 0 0 1 72.72707834723772,0 z" transform="translate(714.184857730175 469.29200266373266)" data-type="pcb_plated_hole" data-pcb-layer="top"/><path class="pcb-hole-inner" fill="#FF26E2" d="M21.818123504171314,-29.090831338895097 v58.18166267779019 a21.818123504171314,21.818123504171314 0 0 1 -43.63624700834263,0 v-58.18166267779019 a21.818123504171314,21.818123504171314 0 0 1 43.63624700834263,0 z" transform="translate(714.184857730175 469.29200266373266)" data-type="pcb_plated_hole_drill" data-pcb-layer="drill"/></g><g data-type="pcb_plated_hole" data-pcb-layer="through"><path class="pcb-hole-outer" fill="rgb(200, 52, 52)" d="M36.36353917361886,-39.99989309098075 v79.9997861819615 a36.36353917361886,36.36353917361886 0 0 1 -72.72707834723772,0 v-79.9997861819615 a36.36353917361886,36.36353917361886 0 0 1 72.72707834723772,0 z" transform="translate(714.184857730175 165.28653444923287)" data-type="pcb_plated_hole" data-pcb-layer="top"/><path class="pcb-hole-inner" fill="#FF26E2" d="M21.818123504171314,-39.99989309098075 v79.9997861819615 a21.818123504171314,21.818123504171314 0 0 1 -43.63624700834263,0 v-79.9997861819615 a21.818123504171314,21.818123504171314 0 0 1 43.63624700834263,0 z" transform="translate(714.184857730175 165.28653444923287)" data-type="pcb_plated_hole_drill" data-pcb-layer="drill"/></g><circle class="pcb-hole" cx="610.1834731492963" cy="201.6408372654359" r="23.63583864498112" fill="#FF26E2" data-type="pcb_hole" data-pcb-layer="drill"/><circle class="pcb-hole" cx="189.09793824321068" cy="201.6408372654359" r="23.63583864498112" fill="#FF26E2" data-type="pcb_hole" data-pcb-layer="drill"/><rect x="356.3645893547279" y="663.7645292913089" width="87.27266856202237" height="87.27266856202232" class="pcb-note-rect" data-type="pcb_note_rect" data-pcb-note-rect-id="GT_USB_7010ASV_cable_insert_center" data-pcb-layer="overlay" fill="none" stroke="#33dd88" stroke-width="10.909083570252799" stroke-dasharray="14.545444760337066 7.272722380168533"/></svg>