<svg xmlns="http://www.w3.org/2000/svg" width="800" height="444.71090954881186" data-software-used-string="@tscircuit/core@0.0.1081"><style></style><rect class="boundary" x="0" y="0" fill="#0e1015" width="800" height="444.71090954881186" data-type="pcb_background" data-pcb-layer="global"/><rect class="pcb-boundary" fill="none" stroke="#fff" stroke-width="0.3" x="117.59667556550176" y="65.37065568831349" width="564.8066488689965" height="313.96959817218476" data-type="pcb_boundary" data-pcb-layer="global"/><rect class="pcb-pad" fill="rgb(200, 52, 52)" x="197.3497122496429" y="248.59920396649395" width="52.29641995760173" height="130.74104989400433" data-type="pcb_smtpad" data-pcb-layer="top"/><rect class="pcb-pad" fill="rgb(200, 52, 52)" x="275.80430467397287" y="248.59920396649395" width="52.29641995760173" height="130.74104989400433" data-type="pcb_smtpad" data-pcb-layer="top"/><rect class="pcb-pad" fill="rgb(200, 52, 52)" x="341.17482962096796" y="248.59920396649395" width="52.29641995760173" height="130.74104989400433" data-type="pcb_smtpad" data-pcb-layer="top"/><rect class="pcb-pad" fill="rgb(200, 52, 52)" x="406.5453545679779" y="248.59920396649395" width="52.29641995760173" height="130.74104989400433" data-type="pcb_smtpad" data-pcb-layer="top"/><rect class="pcb-pad" fill="rgb(200, 52, 52)" x="471.91587951498036" y="248.59920396649395" width="52.29641995760173" height="130.74104989400433" data-type="pcb_smtpad" data-pcb-layer="top"/><rect class="pcb-pad" fill="rgb(200, 52, 52)" x="550.3538677927629" y="248.59920396649395" width="52.29641995760173" height="130.74104989400433" data-type="pcb_smtpad" data-pcb-layer="top"/><path class="pcb-silkscreen pcb-silkscreen-top" d="M 682.273812091453 192.3094867648538 L 682.273812091453 130.74131137662704 L 458.1178337362276 130.74131137662704" fill="none" stroke="#f2eda1" stroke-width="6.5370655688313555" stroke-linecap="round" stroke-linejoin="round" data-pcb-component-id="pcb_component_0" data-pcb-silkscreen-path-id="pcb_silkscreen_path_0" data-type="pcb_silkscreen_path" data-pcb-layer="top"/><path class="pcb-silkscreen pcb-silkscreen-top" d="M 617.7617215208181 363.19936300427264 L 682.273812091453 363.19936300427264 L 682.273812091453 333.6589258863612" fill="none" stroke="#f2eda1" stroke-width="6.5370655688313555" stroke-linecap="round" stroke-linejoin="round" data-pcb-component-id="pcb_component_0" data-pcb-silkscreen-path-id="pcb_silkscreen_path_1" data-type="pcb_silkscreen_path" data-pcb-layer="top"/><path class="pcb-silkscreen pcb-silkscreen-top" d="M 117.73282956717941 333.6589258863612 L 117.73282956717941 363.19936300427264 L 182.2449201378069 363.19936300427264" fill="none" stroke="#f2eda1" stroke-width="6.5370655688313555" stroke-linecap="round" stroke-linejoin="round" data-pcb-component-id="pcb_component_0" data-pcb-silkscreen-path-id="pcb_silkscreen_path_2" data-type="pcb_silkscreen_path" data-pcb-layer="top"/><path class="pcb-silkscreen pcb-silkscreen-top" d="M 350.19088119481756 130.74131137662704 L 117.73282956717941 130.74131137662704 L 117.73282956717941 192.3094867648538" fill="none" stroke="#f2eda1" stroke-width="6.5370655688313555" stroke-linecap="round" stroke-linejoin="round" data-pcb-component-id="pcb_component_0" data-pcb-silkscreen-path-id="pcb_silkscreen_path_3" data-type="pcb_silkscreen_path" data-pcb-layer="top"/><path class="pcb-silkscreen pcb-silkscreen-top" d="M 350.19088119481756 130.74131137662704 L 458.1178337362276 130.74131137662704" fill="none" stroke="#f2eda1" stroke-width="6.5370655688313555" stroke-linecap="round" stroke-linejoin="round" data-pcb-component-id="pcb_component_0" data-pcb-silkscreen-path-id="pcb_silkscreen_path_4" data-type="pcb_silkscreen_path" data-pcb-layer="top"/><g data-type="pcb_plated_hole" data-pcb-layer="through"><path class="pcb-hole-outer" fill="rgb(200, 52, 52)" d="M32.68526247350108,-22.87968373145076 v45.75936746290152 a32.68526247350108,32.68526247350108 0 0 1 -65.37052494700217,0 v-45.75936746290152 a32.68526247350108,32.68526247350108 0 0 1 65.37052494700217,0 z" transform="translate(117.59667556550176 262.99499902086563)" data-type="pcb_plated_hole" data-pcb-layer="top"/><path class="pcb-hole-inner" fill="#FF26E2" d="M16.343461444077782,-22.879683731450754 v45.75936746290151 a16.343461444077782,16.343461444077782 0 0 1 -32.686922888155564,0 v-45.75936746290151 a16.343461444077782,16.343461444077782 0 0 1 32.686922888155564,0 z" transform="translate(117.59667556550176 262.99499902086563)" data-type="pcb_plated_hole_drill" data-pcb-layer="drill"/></g><g data-type="pcb_plated_hole" data-pcb-layer="through"><path class="pcb-hole-outer" fill="rgb(200, 52, 52)" d="M32.68526247350108,-22.87968373145076 v45.75936746290152 a32.68526247350108,32.68526247350108 0 0 1 -65.37052494700217,0 v-45.75936746290152 a32.68526247350108,32.68526247350108 0 0 1 65.37052494700217,0 z" transform="translate(682.4033244344982 262.99499902086563)" data-type="pcb_plated_hole" data-pcb-layer="top"/><path class="pcb-hole-inner" fill="#FF26E2" d="M16.343461444077782,-22.879683731450754 v45.75936746290151 a16.343461444077782,16.343461444077782 0 0 1 -32.686922888155564,0 v-45.75936746290151 a16.343461444077782,16.343461444077782 0 0 1 32.686922888155564,0 z" transform="translate(682.4033244344982 262.99499902086563)" data-type="pcb_plated_hole_drill" data-pcb-layer="drill"/></g><rect x="360.7776065870119" y="65.37065568831349" width="78.44478682597622" height="78.44478682597625" class="pcb-note-rect" data-type="pcb_note_rect" data-pcb-note-rect-id="MC_306LS_H735_cable_insert_center" data-pcb-layer="overlay" fill="none" stroke="#33dd88" stroke-width="9.805598353247031" stroke-dasharray="13.074131137662711 6.5370655688313555"/></svg>