<svg xmlns="http://www.w3.org/2000/svg" width="800" height="797.3418038908667" data-software-used-string="@tscircuit/core@0.0.1081"><style></style><rect class="boundary" x="0" y="0" fill="#0e1015" width="800" height="797.3418038908667" data-type="pcb_background" data-pcb-layer="global"/><rect class="pcb-boundary" fill="none" stroke="#fff" stroke-width="0.3" x="87.65834071237532" y="87.3670743871069" width="624.6833185752494" height="622.6076551166528" data-type="pcb_boundary" data-pcb-layer="global"/><rect class="pcb-pad" fill="rgb(200, 52, 52)" x="268.9518696442549" y="105.74363765931008" width="34.946759861183274" height="122.31365951414148" data-type="pcb_smtpad" data-pcb-layer="top"/><rect class="pcb-pad" fill="rgb(200, 52, 52)" x="325.73924485682414" y="105.74363765931008" width="34.946759861183274" height="122.31365951414148" data-type="pcb_smtpad" data-pcb-layer="top"/><rect class="pcb-pad" fill="rgb(200, 52, 52)" x="382.5266200694133" y="105.74363765931008" width="34.946759861183274" height="122.31365951414148" data-type="pcb_smtpad" data-pcb-layer="top"/><rect class="pcb-pad" fill="rgb(200, 52, 52)" x="439.3139952819925" y="105.74363765931008" width="34.946759861183274" height="122.31365951414148" data-type="pcb_smtpad" data-pcb-layer="top"/><rect class="pcb-pad" fill="rgb(200, 52, 52)" x="496.10137049456176" y="105.74363765931008" width="34.946759861183274" height="122.31365951414148" data-type="pcb_smtpad" data-pcb-layer="top"/><path class="pcb-silkscreen pcb-silkscreen-top" d="M 640.3688206682649 87.3670743871069 L 539.0902346062542 87.3670743871069" fill="none" stroke="#f2eda1" stroke-width="8.736707438710697" stroke-linecap="round" stroke-linejoin="round" data-pcb-component-id="pcb_component_0" data-pcb-silkscreen-path-id="pcb_silkscreen_path_0" data-type="pcb_silkscreen_path" data-pcb-layer="top"/><path class="pcb-silkscreen pcb-silkscreen-top" d="M 87.66499808344071 612.4738747701497 L 712.337221040241 612.4738747701497" fill="none" stroke="#f2eda1" stroke-width="8.736707438710697" stroke-linecap="round" stroke-linejoin="round" data-pcb-component-id="pcb_component_0" data-pcb-silkscreen-path-id="pcb_silkscreen_path_1" data-type="pcb_silkscreen_path" data-pcb-layer="top"/><path class="pcb-silkscreen pcb-silkscreen-top" d="M 260.9097653937458 87.3670743871069 L 159.63117933173507 87.3670743871069" fill="none" stroke="#f2eda1" stroke-width="8.736707438710697" stroke-linecap="round" stroke-linejoin="round" data-pcb-component-id="pcb_component_0" data-pcb-silkscreen-path-id="pcb_silkscreen_path_2" data-type="pcb_silkscreen_path" data-pcb-layer="top"/><path class="pcb-silkscreen pcb-silkscreen-top" d="M 87.66499808344071 612.4738747701497 L 87.66499808344071 523.4626044633235" fill="none" stroke="#f2eda1" stroke-width="8.736707438710697" stroke-linecap="round" stroke-linejoin="round" data-pcb-component-id="pcb_component_0" data-pcb-silkscreen-path-id="pcb_silkscreen_path_3" data-type="pcb_silkscreen_path" data-pcb-layer="top"/><path class="pcb-silkscreen pcb-silkscreen-top" d="M 87.66499808344071 325.8141339403252 L 87.66499808344071 222.0456910987742" fill="none" stroke="#f2eda1" stroke-width="8.736707438710697" stroke-linecap="round" stroke-linejoin="round" data-pcb-component-id="pcb_component_0" data-pcb-silkscreen-path-id="pcb_silkscreen_path_4" data-type="pcb_silkscreen_path" data-pcb-layer="top"/><path class="pcb-silkscreen pcb-silkscreen-top" d="M 712.337221040241 612.4738747701497 L 712.337221040241 523.4626044633235" fill="none" stroke="#f2eda1" stroke-width="8.736707438710697" stroke-linecap="round" stroke-linejoin="round" data-pcb-component-id="pcb_component_0" data-pcb-silkscreen-path-id="pcb_silkscreen_path_5" data-type="pcb_silkscreen_path" data-pcb-layer="top"/><path class="pcb-silkscreen pcb-silkscreen-top" d="M 712.337221040241 325.8141339403252 L 712.337221040241 222.0456910987742" fill="none" stroke="#f2eda1" stroke-width="8.736707438710697" stroke-linecap="round" stroke-linejoin="round" data-pcb-component-id="pcb_component_0" data-pcb-silkscreen-path-id="pcb_silkscreen_path_6" data-type="pcb_silkscreen_path" data-pcb-layer="top"/><g data-type="pcb_plated_hole" data-pcb-layer="through"><path class="pcb-hole-outer" fill="rgb(200, 52, 52)" d="M43.68344982647909,-30.57841487853537 v61.15682975707074 a43.68344982647909,43.68344982647909 0 0 1 -87.36689965295818,0 v-61.15682975707074 a43.68344982647909,43.68344982647909 0 0 1 87.36689965295818,0 z" transform="translate(712.3416592876247 123.22811320834049)" data-type="pcb_plated_hole" data-pcb-layer="top"/><path class="pcb-hole-inner" fill="#FF26E2" d="M26.210069895887454,-30.578414878535373 v61.156829757070746 a26.210069895887454,26.210069895887454 0 0 1 -52.42013979177491,0 v-61.156829757070746 a26.210069895887454,26.210069895887454 0 0 1 52.42013979177491,0 z" transform="translate(712.3416592876247 123.22811320834049)" data-type="pcb_plated_hole_drill" data-pcb-layer="drill"/></g><g data-type="pcb_plated_hole" data-pcb-layer="through"><path class="pcb-hole-outer" fill="rgb(200, 52, 52)" d="M43.68344982647909,-30.57841487853537 v61.15682975707074 a43.68344982647909,43.68344982647909 0 0 1 -87.36689965295818,0 v-61.15682975707074 a43.68344982647909,43.68344982647909 0 0 1 87.36689965295818,0 z" transform="translate(87.65834071237532 123.22811320834049)" data-type="pcb_plated_hole" data-pcb-layer="top"/><path class="pcb-hole-inner" fill="#FF26E2" d="M26.210069895887454,-30.578414878535373 v61.156829757070746 a26.210069895887454,26.210069895887454 0 0 1 -52.42013979177491,0 v-61.156829757070746 a26.210069895887454,26.210069895887454 0 0 1 52.42013979177491,0 z" transform="translate(87.65834071237532 123.22811320834049)" data-type="pcb_plated_hole_drill" data-pcb-layer="drill"/></g><g data-type="pcb_plated_hole" data-pcb-layer="through"><path class="pcb-hole-outer" fill="rgb(200, 52, 52)" d="M43.68344982647909,-30.57841487853537 v61.15682975707074 a43.68344982647909,43.68344982647909 0 0 1 -87.36689965295818,0 v-61.15682975707074 a43.68344982647909,43.68344982647909 0 0 1 87.36689965295818,0 z" transform="translate(87.65834071237532 424.6294927070771)" data-type="pcb_plated_hole" data-pcb-layer="top"/><path class="pcb-hole-inner" fill="#FF26E2" d="M26.210069895887454,-30.578414878535373 v61.156829757070746 a26.210069895887454,26.210069895887454 0 0 1 -52.42013979177491,0 v-61.156829757070746 a26.210069895887454,26.210069895887454 0 0 1 52.42013979177491,0 z" transform="translate(87.65834071237532 424.6294927070771)" data-type="pcb_plated_hole_drill" data-pcb-layer="drill"/></g><g data-type="pcb_plated_hole" data-pcb-layer="through"><path class="pcb-hole-outer" fill="rgb(200, 52, 52)" d="M43.68344982647909,-30.57841487853537 v61.15682975707074 a43.68344982647909,43.68344982647909 0 0 1 -87.36689965295818,0 v-61.15682975707074 a43.68344982647909,43.68344982647909 0 0 1 87.36689965295818,0 z" transform="translate(712.3416592876247 424.6294927070771)" data-type="pcb_plated_hole" data-pcb-layer="top"/><path class="pcb-hole-inner" fill="#FF26E2" d="M26.210069895887454,-30.578414878535373 v61.156829757070746 a26.210069895887454,26.210069895887454 0 0 1 -52.42013979177491,0 v-61.156829757070746 a26.210069895887454,26.210069895887454 0 0 1 52.42013979177491,0 z" transform="translate(712.3416592876247 424.6294927070771)" data-type="pcb_plated_hole_drill" data-pcb-layer="drill"/></g><circle class="pcb-hole" cx="225.26620069408767" cy="238.97760484914477" r="30.579524440380084" fill="#FF26E2" data-type="pcb_hole" data-pcb-layer="drill"/><circle class="pcb-hole" cx="574.7337993059123" cy="238.97760484914477" r="30.579524440380084" fill="#FF26E2" data-type="pcb_hole" data-pcb-layer="drill"/><rect x="347.5797553677358" y="605.1342402392313" width="104.84048926452834" height="104.8404892645284" class="pcb-note-rect" data-type="pcb_note_rect" data-pcb-note-rect-id="MICRO_4P_DIP_cable_insert_center" data-pcb-layer="overlay" fill="none" stroke="#33dd88" stroke-width="13.105061158066045" stroke-dasharray="17.473414877421394 8.736707438710697"/></svg>