<svg xmlns="http://www.w3.org/2000/svg" width="800" height="662.71281105126" data-software-used-string="@tscircuit/core@0.0.1081"><style></style><rect class="boundary" x="0" y="0" fill="#0e1015" width="800" height="662.71281105126" data-type="pcb_background" data-pcb-layer="global"/><rect class="pcb-boundary" fill="none" stroke="#fff" stroke-width="0.3" x="71.19568515531358" y="58.97786580499792" width="657.6086296893727" height="544.7570794412642" data-type="pcb_boundary" data-pcb-layer="global"/><rect class="pcb-pad" fill="rgb(200, 52, 52)" x="211.2674617878643" y="58.977865804997904" width="53.0799730643397" height="70.77329741911959" data-type="pcb_smtpad" data-pcb-layer="top"/><rect class="pcb-pad" fill="rgb(200, 52, 52)" x="286.76631942011306" y="58.977865804997904" width="47.18219827941306" height="70.77329741911959" data-type="pcb_smtpad" data-pcb-layer="top"/><rect class="pcb-pad" fill="rgb(200, 52, 52)" x="349.8764045170819" y="58.977865804997904" width="41.28442349448643" height="70.77329741911959" data-type="pcb_smtpad" data-pcb-layer="top"/><rect class="pcb-pad" fill="rgb(200, 52, 52)" x="408.8541523663485" y="58.977865804997904" width="41.28442349448643" height="70.77329741911959" data-type="pcb_smtpad" data-pcb-layer="top"/><rect class="pcb-pad" fill="rgb(200, 52, 52)" x="466.0514823004738" y="58.977865804997904" width="47.18219827941306" height="70.77329741911959" data-type="pcb_smtpad" data-pcb-layer="top"/><rect class="pcb-pad" fill="rgb(200, 52, 52)" x="535.6525651477959" y="58.977865804997904" width="53.0799730643397" height="70.77329741911959" data-type="pcb_smtpad" data-pcb-layer="top"/><path class="pcb-silkscreen pcb-silkscreen-top" d="M 122.86300858231056 530.0882806481877 L 122.86300858231056 103.14751008581908 L 197.76489815466357 103.14751008581908 L 197.76489815466357 140.59845487198552 L 602.235101845343 140.59845487198552 L 602.235101845343 103.14751008581908 L 677.1369914176826 103.14751008581908 L 677.1369914176826 530.0882806481877" fill="none" stroke="#f2eda1" stroke-width="5.897786580499794" stroke-linecap="round" stroke-linejoin="round" data-pcb-component-id="pcb_component_0" data-pcb-silkscreen-path-id="pcb_silkscreen_path_0" data-type="pcb_silkscreen_path" data-pcb-layer="top"/><path class="pcb-silkscreen pcb-silkscreen-top" d="M 122.86300858231056 325.98812175250845 L 114.24329913032841 325.98812175250845" fill="none" stroke="#f2eda1" stroke-width="5.897786580499794" stroke-linecap="round" stroke-linejoin="round" data-pcb-component-id="pcb_component_0" data-pcb-silkscreen-path-id="pcb_silkscreen_path_1" data-type="pcb_silkscreen_path" data-pcb-layer="top"/><path class="pcb-silkscreen pcb-silkscreen-top" d="M 684.6271803749146 326.73714064822497 L 685.717751887093 326.73714064822497" fill="none" stroke="#f2eda1" stroke-width="5.897786580499794" stroke-linecap="round" stroke-linejoin="round" data-pcb-component-id="pcb_component_0" data-pcb-silkscreen-path-id="pcb_silkscreen_path_2" data-type="pcb_silkscreen_path" data-pcb-layer="top"/><path class="pcb-silkscreen pcb-silkscreen-top" d="M 677.1369914176826 401.63903022057127 L 688.0801574842118 401.63903022057127" fill="none" stroke="#f2eda1" stroke-width="5.897786580499794" stroke-linecap="round" stroke-linejoin="round" data-pcb-component-id="pcb_component_0" data-pcb-silkscreen-path-id="pcb_silkscreen_path_3" data-type="pcb_silkscreen_path" data-pcb-layer="top"/><path class="pcb-silkscreen pcb-silkscreen-top" d="M 111.91984251579481 401.63903022057127 L 122.86300858231056 401.63903022057127" fill="none" stroke="#f2eda1" stroke-width="5.897786580499794" stroke-linecap="round" stroke-linejoin="round" data-pcb-component-id="pcb_component_0" data-pcb-silkscreen-path-id="pcb_silkscreen_path_4" data-type="pcb_silkscreen_path" data-pcb-layer="top"/><path class="pcb-silkscreen pcb-silkscreen-top" d="M 676.3729921440425 102.03147193118602 L 601.4711025717029 102.03147193118602" fill="none" stroke="#f2eda1" stroke-width="5.897786580499794" stroke-linecap="round" stroke-linejoin="round" data-pcb-component-id="pcb_component_0" data-pcb-silkscreen-path-id="pcb_silkscreen_path_5" data-type="pcb_silkscreen_path" data-pcb-layer="top"/><path class="pcb-silkscreen pcb-silkscreen-top" d="M 122.86300858231056 102.03147193118602 L 197.0008988810235 102.03147193118602" fill="none" stroke="#f2eda1" stroke-width="5.897786580499794" stroke-linecap="round" stroke-linejoin="round" data-pcb-component-id="pcb_component_0" data-pcb-silkscreen-path-id="pcb_silkscreen_path_6" data-type="pcb_silkscreen_path" data-pcb-layer="top"/><path class="pcb-silkscreen pcb-silkscreen-top" d="M 676.3729921440425 102.03147193118602 L 692.35555734099 102.03147193118602" fill="none" stroke="#f2eda1" stroke-width="5.897786580499794" stroke-linecap="round" stroke-linejoin="round" data-pcb-component-id="pcb_component_0" data-pcb-silkscreen-path-id="pcb_silkscreen_path_7" data-type="pcb_silkscreen_path" data-pcb-layer="top"/><path class="pcb-silkscreen pcb-silkscreen-top" d="M 122.86300858231056 102.03147193118602 L 107.64444265900318 102.03147193118602" fill="none" stroke="#f2eda1" stroke-width="5.897786580499794" stroke-linecap="round" stroke-linejoin="round" data-pcb-component-id="pcb_component_0" data-pcb-silkscreen-path-id="pcb_silkscreen_path_8" data-type="pcb_silkscreen_path" data-pcb-layer="top"/><path class="pcb-silkscreen pcb-silkscreen-top" d="M 122.86300858231056 102.03147193118602 L 122.86300858231056 530.617087988577 L 676.3729921440425 530.617087988577 L 676.3729921440425 102.03147193118602" fill="none" stroke="#f2eda1" stroke-width="5.897786580499794" stroke-linecap="round" stroke-linejoin="round" data-pcb-component-id="pcb_component_0" data-pcb-silkscreen-path-id="pcb_silkscreen_path_9" data-type="pcb_silkscreen_path" data-pcb-layer="top"/><path class="pcb-silkscreen pcb-silkscreen-top" d="M 684.6271803749146 176.93336150352562 L 687.012056538902 176.93336150352562" fill="none" stroke="#f2eda1" stroke-width="5.897786580499794" stroke-linecap="round" stroke-linejoin="round" data-pcb-component-id="pcb_component_0" data-pcb-silkscreen-path-id="pcb_silkscreen_path_10" data-type="pcb_silkscreen_path" data-pcb-layer="top"/><path class="pcb-silkscreen pcb-silkscreen-top" d="M 112.98794346109787 176.93336150352562 L 122.86300858231056 176.93336150352562" fill="none" stroke="#f2eda1" stroke-width="5.897786580499794" stroke-linecap="round" stroke-linejoin="round" data-pcb-component-id="pcb_component_0" data-pcb-silkscreen-path-id="pcb_silkscreen_path_11" data-type="pcb_silkscreen_path" data-pcb-layer="top"/><g data-type="pcb_plated_hole" data-pcb-layer="through"><path class="pcb-hole-outer" fill="rgb(200, 52, 52)" d="M29.488873924633165,-20.642211747243213 v41.284423494486425 a29.488873924633165,29.488873924633165 0 0 1 -58.97774784926633,0 v-41.284423494486425 a29.488873924633165,29.488873924633165 0 0 1 58.97774784926633,0 z" transform="translate(71.19568515531358 145.67230887161668)" data-type="pcb_plated_hole" data-pcb-layer="top"/><path class="pcb-hole-inner" fill="#FF26E2" d="M14.745185981212304,-20.642211747243216 v41.28442349448643 a14.745185981212304,14.745185981212304 0 0 1 -29.490371962424607,0 v-41.28442349448643 a14.745185981212304,14.745185981212304 0 0 1 29.490371962424607,0 z" transform="translate(71.19568515531358 145.67230887161668)" data-type="pcb_plated_hole_drill" data-pcb-layer="drill"/></g><g data-type="pcb_plated_hole" data-pcb-layer="through"><path class="pcb-hole-outer" fill="rgb(200, 52, 52)" d="M29.488873924633165,-29.488873924633165 v58.97774784926633 a29.488873924633165,29.488873924633165 0 0 1 -58.97774784926633,0 v-58.97774784926633 a29.488873924633165,29.488873924633165 0 0 1 58.97774784926633,0 z" transform="translate(71.19568515531358 357.98920505339584)" data-type="pcb_plated_hole" data-pcb-layer="top"/><path class="pcb-hole-inner" fill="#FF26E2" d="M14.745185981212304,-29.48887392463316 v58.97774784926632 a14.745185981212304,14.745185981212304 0 0 1 -29.490371962424607,0 v-58.97774784926632 a14.745185981212304,14.745185981212304 0 0 1 29.490371962424607,0 z" transform="translate(71.19568515531358 357.98920505339584)" data-type="pcb_plated_hole_drill" data-pcb-layer="drill"/></g><g data-type="pcb_plated_hole" data-pcb-layer="through"><path class="pcb-hole-outer" fill="rgb(200, 52, 52)" d="M29.488873924633165,-29.488873924633165 v58.97774784926633 a29.488873924633165,29.488873924633165 0 0 1 -58.97774784926633,0 v-58.97774784926633 a29.488873924633165,29.488873924633165 0 0 1 58.97774784926633,0 z" transform="translate(728.8043148446864 357.98920505339584)" data-type="pcb_plated_hole" data-pcb-layer="top"/><path class="pcb-hole-inner" fill="#FF26E2" d="M14.745185981212304,-29.48887392463316 v58.97774784926632 a14.745185981212304,14.745185981212304 0 0 1 -29.490371962424607,0 v-58.97774784926632 a14.745185981212304,14.745185981212304 0 0 1 29.490371962424607,0 z" transform="translate(728.8043148446864 357.98920505339584)" data-type="pcb_plated_hole_drill" data-pcb-layer="drill"/></g><g data-type="pcb_plated_hole" data-pcb-layer="through"><path class="pcb-hole-outer" fill="rgb(200, 52, 52)" d="M29.488873924633165,-20.642211747243213 v41.284423494486425 a29.488873924633165,29.488873924633165 0 0 1 -58.97774784926633,0 v-41.284423494486425 a29.488873924633165,29.488873924633165 0 0 1 58.97774784926633,0 z" transform="translate(728.8043148446864 145.67230887161668)" data-type="pcb_plated_hole" data-pcb-layer="top"/><path class="pcb-hole-inner" fill="#FF26E2" d="M14.745185981212304,-20.642211747243216 v41.28442349448643 a14.745185981212304,14.745185981212304 0 0 1 -29.490371962424607,0 v-41.28442349448643 a14.745185981212304,14.745185981212304 0 0 1 29.490371962424607,0 z" transform="translate(728.8043148446864 145.67230887161668)" data-type="pcb_plated_hole_drill" data-pcb-layer="drill"/></g><rect x="364.61328051700116" y="532.9615062802646" width="70.77343896599757" height="70.77343896599746" class="pcb-note-rect" data-type="pcb_note_rect" data-pcb-note-rect-id="TYPE_C_6P_CB0_8_073__cable_insert_center" data-pcb-layer="overlay" fill="none" stroke="#33dd88" stroke-width="8.846679870749691" stroke-dasharray="11.795573160999588 5.897786580499794"/></svg>