<svg xmlns="http://www.w3.org/2000/svg" width="800" height="1108.057222631203" data-software-used-string="@tscircuit/core@0.0.1081"><style></style><rect class="boundary" x="0" y="0" fill="#0e1015" width="800" height="1108.057222631203" data-type="pcb_background" data-pcb-layer="global"/><rect class="pcb-boundary" fill="none" stroke="#fff" stroke-width="0.3" x="73.73275287223612" y="102.1251367057034" width="652.5344942555279" height="903.8069492197961" data-type="pcb_boundary" data-pcb-layer="global"/><rect class="pcb-pad" fill="rgb(200, 52, 52)" x="573.277241141588" y="102.1251367057034" width="58.98608432538428" height="87.005223504711" data-type="pcb_smtpad" data-pcb-layer="top"/><rect class="pcb-pad" fill="rgb(200, 52, 52)" x="492.1657567584111" y="102.1251367057034" width="58.98608432538428" height="87.005223504711" data-type="pcb_smtpad" data-pcb-layer="top"/><rect class="pcb-pad" fill="rgb(200, 52, 52)" x="411.05427237524253" y="102.1251367057034" width="58.98608432538428" height="87.005223504711" data-type="pcb_smtpad" data-pcb-layer="top"/><rect class="pcb-pad" fill="rgb(200, 52, 52)" x="329.9615161112898" y="102.1251367057034" width="58.98608432538428" height="87.005223504711" data-type="pcb_smtpad" data-pcb-layer="top"/><rect class="pcb-pad" fill="rgb(200, 52, 52)" x="248.8500317281296" y="102.1251367057034" width="58.98608432538428" height="87.005223504711" data-type="pcb_smtpad" data-pcb-layer="top"/><rect class="pcb-pad" fill="rgb(200, 52, 52)" x="167.73854734496106" y="102.1251367057034" width="58.98608432538428" height="87.005223504711" data-type="pcb_smtpad" data-pcb-layer="top"/><path class="pcb-silkscreen pcb-silkscreen-top" d="M 649.30216834202 167.7381660204652 L 665.2042143798305 167.7381660204652" fill="none" stroke="#f2eda1" stroke-width="7.373275287223611" stroke-linecap="round" stroke-linejoin="round" data-pcb-component-id="pcb_component_0" data-pcb-silkscreen-path-id="pcb_silkscreen_path_0" data-type="pcb_silkscreen_path" data-pcb-layer="top"/><path class="pcb-silkscreen pcb-silkscreen-top" d="M 134.79578562018622 167.7381660204652 L 150.70157728183833 167.7381660204652" fill="none" stroke="#f2eda1" stroke-width="7.373275287223611" stroke-linecap="round" stroke-linejoin="round" data-pcb-component-id="pcb_component_0" data-pcb-silkscreen-path-id="pcb_silkscreen_path_1" data-type="pcb_silkscreen_path" data-pcb-layer="top"/><path class="pcb-silkscreen pcb-silkscreen-top" d="M 726.267247127764 446.55304105036157 L 726.267247127764 287.2123298334358" fill="none" stroke="#f2eda1" stroke-width="7.373275287223611" stroke-linecap="round" stroke-linejoin="round" data-pcb-component-id="pcb_component_0" data-pcb-silkscreen-path-id="pcb_silkscreen_path_2" data-type="pcb_silkscreen_path" data-pcb-layer="top"/><path class="pcb-silkscreen pcb-silkscreen-top" d="M 726.267247127764 905.0660928996974 L 726.267247127764 589.3867879783522" fill="none" stroke="#f2eda1" stroke-width="7.373275287223611" stroke-linecap="round" stroke-linejoin="round" data-pcb-component-id="pcb_component_0" data-pcb-silkscreen-path-id="pcb_silkscreen_path_3" data-type="pcb_silkscreen_path" data-pcb-layer="top"/><path class="pcb-silkscreen pcb-silkscreen-top" d="M 73.73275287223612 446.55304105036157 L 73.73275287223612 287.2123298334358" fill="none" stroke="#f2eda1" stroke-width="7.373275287223611" stroke-linecap="round" stroke-linejoin="round" data-pcb-component-id="pcb_component_0" data-pcb-silkscreen-path-id="pcb_silkscreen_path_4" data-type="pcb_silkscreen_path" data-pcb-layer="top"/><path class="pcb-silkscreen pcb-silkscreen-top" d="M 73.73275287223612 905.0660928996974 L 73.73275287223612 589.3867879783522" fill="none" stroke="#f2eda1" stroke-width="7.373275287223611" stroke-linecap="round" stroke-linejoin="round" data-pcb-component-id="pcb_component_0" data-pcb-silkscreen-path-id="pcb_silkscreen_path_5" data-type="pcb_silkscreen_path" data-pcb-layer="top"/><path class="pcb-silkscreen pcb-silkscreen-top" d="M 73.73275287223612 905.0660928996974 L 726.267247127764 905.0660928996974" fill="none" stroke="#f2eda1" stroke-width="7.373275287223611" stroke-linecap="round" stroke-linejoin="round" data-pcb-component-id="pcb_component_0" data-pcb-silkscreen-path-id="pcb_silkscreen_path_6" data-type="pcb_silkscreen_path" data-pcb-layer="top"/><g data-type="pcb_plated_hole" data-pcb-layer="through"><path class="pcb-hole-outer" fill="rgb(200, 52, 52)" d="M29.49304216269214,-25.806411892355626 v51.61282378471125 a29.49304216269214,29.49304216269214 0 0 1 -58.98608432538428,0 v-51.61282378471125 a29.49304216269214,29.49304216269214 0 0 1 58.98608432538428,0 z" transform="translate(717.0492668429788 517.9802149799315)" data-type="pcb_plated_hole" data-pcb-layer="top"/><path class="pcb-hole-inner" fill="#FF26E2" d="M20.276934689831585,-25.806411892355634 v51.61282378471127 a20.276934689831585,20.276934689831585 0 0 1 -40.55386937966317,0 v-51.61282378471127 a20.276934689831585,20.276934689831585 0 0 1 40.55386937966317,0 z" transform="translate(717.0492668429788 517.9802149799315)" data-type="pcb_plated_hole_drill" data-pcb-layer="drill"/></g><g data-type="pcb_plated_hole" data-pcb-layer="through"><path class="pcb-hole-outer" fill="rgb(200, 52, 52)" d="M36.86630270336518,-25.806411892355626 v51.61282378471125 a36.86630270336518,36.86630270336518 0 0 1 -73.73260540673036,0 v-51.61282378471125 a36.86630270336518,36.86630270336518 0 0 1 73.73260540673036,0 z" transform="translate(717.0492668429788 208.29203540012455)" data-type="pcb_plated_hole" data-pcb-layer="top"/><path class="pcb-hole-inner" fill="#FF26E2" d="M20.276934689831585,-25.806411892355626 v51.61282378471125 a20.276934689831585,20.276934689831585 0 0 1 -40.55386937966317,0 v-51.61282378471125 a20.276934689831585,20.276934689831585 0 0 1 40.55386937966317,0 z" transform="translate(717.0492668429788 208.29203540012455)" data-type="pcb_plated_hole_drill" data-pcb-layer="drill"/></g><g data-type="pcb_plated_hole" data-pcb-layer="through"><path class="pcb-hole-outer" fill="rgb(200, 52, 52)" d="M36.86630270336518,-25.806411892355626 v51.61282378471125 a36.86630270336518,36.86630270336518 0 0 1 -73.73260540673036,0 v-51.61282378471125 a36.86630270336518,36.86630270336518 0 0 1 73.73260540673036,0 z" transform="translate(82.95260596895451 208.29203540012455)" data-type="pcb_plated_hole" data-pcb-layer="top"/><path class="pcb-hole-inner" fill="#FF26E2" d="M20.276934689831585,-25.806411892355626 v51.61282378471125 a20.276934689831585,20.276934689831585 0 0 1 -40.55386937966317,0 v-51.61282378471125 a20.276934689831585,20.276934689831585 0 0 1 40.55386937966317,0 z" transform="translate(82.95260596895451 208.29203540012455)" data-type="pcb_plated_hole_drill" data-pcb-layer="drill"/></g><g data-type="pcb_plated_hole" data-pcb-layer="through"><path class="pcb-hole-outer" fill="rgb(200, 52, 52)" d="M29.49304216269214,-25.806411892355626 v51.61282378471125 a29.49304216269214,29.49304216269214 0 0 1 -58.98608432538428,0 v-51.61282378471125 a29.49304216269214,29.49304216269214 0 0 1 58.98608432538428,0 z" transform="translate(82.95260596895451 517.9802149799315)" data-type="pcb_plated_hole" data-pcb-layer="top"/><path class="pcb-hole-inner" fill="#FF26E2" d="M20.276934689831585,-25.806411892355634 v51.61282378471127 a20.276934689831585,20.276934689831585 0 0 1 -40.55386937966317,0 v-51.61282378471127 a20.276934689831585,20.276934689831585 0 0 1 40.55386937966317,0 z" transform="translate(82.95260596895451 517.9802149799315)" data-type="pcb_plated_hole_drill" data-pcb-layer="drill"/></g><rect x="355.76128468262505" y="917.4527824788163" width="88.47930344668328" height="88.47930344668328" class="pcb-note-rect" data-type="pcb_note_rect" data-pcb-note-rect-id="TYPE_C_6P_WTL10_0_108_cable_insert_center" data-pcb-layer="overlay" fill="none" stroke="#33dd88" stroke-width="11.059912930835415" stroke-dasharray="14.746550574447221 7.373275287223611"/></svg>