<svg xmlns="http://www.w3.org/2000/svg" width="800" height="650.03204780637" data-software-used-string="@tscircuit/core@0.0.1081"><style></style><rect class="boundary" x="0" y="0" fill="#0e1015" width="800" height="650.03204780637" data-type="pcb_background" data-pcb-layer="global"/><rect class="pcb-boundary" fill="none" stroke="#fff" stroke-width="0.3" x="71.85871789352848" y="58.388086931338165" width="656.2825642129429" height="533.2558739436936" data-type="pcb_boundary" data-pcb-layer="global"/><rect class="pcb-pad" fill="rgb(200, 52, 52)" x="586.842246025227" y="58.38808693133816" width="17.516391046549305" height="64.22676717068079" data-type="pcb_smtpad" data-pcb-layer="top"/><rect class="pcb-pad" fill="rgb(200, 52, 52)" x="569.3273380360912" y="58.38808693133816" width="17.516391046549305" height="64.22676717068079" data-type="pcb_smtpad" data-pcb-layer="top"/><rect class="pcb-pad" fill="rgb(200, 52, 52)" x="540.1259376714675" y="58.38808693133816" width="17.516391046549305" height="64.22676717068079" data-type="pcb_smtpad" data-pcb-layer="top"/><rect class="pcb-pad" fill="rgb(200, 52, 52)" x="522.6110296823249" y="58.38808693133816" width="17.516391046549305" height="64.22676717068079" data-type="pcb_smtpad" data-pcb-layer="top"/><rect class="pcb-pad" fill="rgb(200, 52, 52)" x="493.4244598917842" y="58.38808693133816" width="17.516391046549305" height="64.22676717068079" data-type="pcb_smtpad" data-pcb-layer="top"/><rect class="pcb-pad" fill="rgb(200, 52, 52)" x="464.2230595271604" y="58.38808693133816" width="17.516391046549305" height="64.22676717068079" data-type="pcb_smtpad" data-pcb-layer="top"/><rect class="pcb-pad" fill="rgb(200, 52, 52)" x="435.03648973662615" y="58.38808693133816" width="17.516391046549305" height="64.22676717068079" data-type="pcb_smtpad" data-pcb-layer="top"/><rect class="pcb-pad" fill="rgb(200, 52, 52)" x="405.83508937200236" y="58.38808693133816" width="17.516391046549305" height="64.22676717068079" data-type="pcb_smtpad" data-pcb-layer="top"/><rect class="pcb-pad" fill="rgb(200, 52, 52)" x="376.6485195814615" y="58.38808693133816" width="17.516391046549305" height="64.22676717068079" data-type="pcb_smtpad" data-pcb-layer="top"/><rect class="pcb-pad" fill="rgb(200, 52, 52)" x="347.4471192168311" y="58.38808693133816" width="17.516391046549305" height="64.22676717068079" data-type="pcb_smtpad" data-pcb-layer="top"/><rect class="pcb-pad" fill="rgb(200, 52, 52)" x="318.2605494262902" y="58.38808693133816" width="17.516391046549305" height="64.22676717068079" data-type="pcb_smtpad" data-pcb-layer="top"/><rect class="pcb-pad" fill="rgb(200, 52, 52)" x="289.05914906166646" y="58.38808693133816" width="17.516391046549305" height="64.22676717068079" data-type="pcb_smtpad" data-pcb-layer="top"/><rect class="pcb-pad" fill="rgb(200, 52, 52)" x="259.8725792711322" y="58.38808693133816" width="17.516391046549305" height="64.22676717068079" data-type="pcb_smtpad" data-pcb-layer="top"/><rect class="pcb-pad" fill="rgb(200, 52, 52)" x="242.35767128198316" y="58.38808693133816" width="17.516391046549305" height="64.22676717068079" data-type="pcb_smtpad" data-pcb-layer="top"/><rect class="pcb-pad" fill="rgb(200, 52, 52)" x="213.15627091735936" y="58.38808693133816" width="17.516391046549305" height="64.22676717068079" data-type="pcb_smtpad" data-pcb-layer="top"/><rect class="pcb-pad" fill="rgb(200, 52, 52)" x="195.64136292822357" y="58.38808693133816" width="17.516391046549305" height="64.22676717068079" data-type="pcb_smtpad" data-pcb-layer="top"/><path class="pcb-silkscreen pcb-silkscreen-top" d="M 665.58592063467 519.7056996951259 L 665.58592063467 134.34657972845014" fill="none" stroke="#f2eda1" stroke-width="5.838808693133822" stroke-linecap="round" stroke-linejoin="round" data-pcb-component-id="pcb_component_0" data-pcb-silkscreen-path-id="pcb_silkscreen_path_0" data-type="pcb_silkscreen_path" data-pcb-layer="top"/><path class="pcb-silkscreen pcb-silkscreen-top" d="M 140.08974006596588 519.7056996951259 L 140.08974006596588 134.34657972845014" fill="none" stroke="#f2eda1" stroke-width="5.838808693133822" stroke-linecap="round" stroke-linejoin="round" data-pcb-component-id="pcb_component_0" data-pcb-silkscreen-path-id="pcb_silkscreen_path_1" data-type="pcb_silkscreen_path" data-pcb-layer="top"/><path class="pcb-silkscreen pcb-silkscreen-top" d="M 140.08974006596588 134.34657972845014 L 665.5829545198508 134.34657972845014" fill="none" stroke="#f2eda1" stroke-width="5.838808693133822" stroke-linecap="round" stroke-linejoin="round" data-pcb-component-id="pcb_component_0" data-pcb-silkscreen-path-id="pcb_silkscreen_path_2" data-type="pcb_silkscreen_path" data-pcb-layer="top"/><path class="pcb-silkscreen pcb-silkscreen-top" d="M 139.0071081580902 134.26797768581986 L 660.9958579567422 134.26797768581986" fill="none" stroke="#f2eda1" stroke-width="5.838808693133822" stroke-linecap="round" stroke-linejoin="round" data-pcb-component-id="pcb_component_0" data-pcb-silkscreen-path-id="pcb_silkscreen_path_3" data-type="pcb_silkscreen_path" data-pcb-layer="top"/><path class="pcb-silkscreen pcb-silkscreen-top" d="M 660.9958579567422 513.7912667518063 L 660.9958579567422 134.26797768581986" fill="none" stroke="#f2eda1" stroke-width="5.838808693133822" stroke-linecap="round" stroke-linejoin="round" data-pcb-component-id="pcb_component_0" data-pcb-silkscreen-path-id="pcb_silkscreen_path_4" data-type="pcb_silkscreen_path" data-pcb-layer="top"/><path class="pcb-silkscreen pcb-silkscreen-top" d="M 139.0071081580902 513.7912667518063 L 139.0071081580902 134.26797768581986" fill="none" stroke="#f2eda1" stroke-width="5.838808693133822" stroke-linecap="round" stroke-linejoin="round" data-pcb-component-id="pcb_component_0" data-pcb-silkscreen-path-id="pcb_silkscreen_path_5" data-type="pcb_silkscreen_path" data-pcb-layer="top"/><path class="pcb-silkscreen pcb-silkscreen-top" d="M 139.0071081580902 513.7912667518063 L 660.9958579567422 513.7912667518063" fill="none" stroke="#f2eda1" stroke-width="5.838808693133822" stroke-linecap="round" stroke-linejoin="round" data-pcb-component-id="pcb_component_0" data-pcb-silkscreen-path-id="pcb_silkscreen_path_6" data-type="pcb_silkscreen_path" data-pcb-layer="top"/><g data-type="pcb_plated_hole" data-pcb-layer="through"><path class="pcb-hole-outer" fill="rgb(200, 52, 52)" d="M29.193985077582173,-32.11338358534039 v64.22676717068077 a29.193985077582173,29.193985077582173 0 0 1 -58.387970155164346,0 v-64.22676717068077 a29.193985077582173,29.193985077582173 0 0 1 58.387970155164346,0 z" transform="translate(728.1412821064714 391.2061905741145)" data-type="pcb_plated_hole" data-pcb-layer="top"/><path class="pcb-hole-inner" fill="#FF26E2" d="M17.516391046549305,-32.11338358534039 v64.22676717068077 a17.516391046549305,17.516391046549305 0 0 1 -35.03278209309861,0 v-64.22676717068077 a17.516391046549305,17.516391046549305 0 0 1 35.03278209309861,0 z" transform="translate(728.1412821064714 391.2061905741145)" data-type="pcb_plated_hole_drill" data-pcb-layer="drill"/></g><g data-type="pcb_plated_hole" data-pcb-layer="through"><path class="pcb-hole-outer" fill="rgb(200, 52, 52)" d="M29.193985077582173,-20.435789554307522 v40.871579108615045 a29.193985077582173,29.193985077582173 0 0 1 -58.387970155164346,0 v-40.871579108615045 a29.193985077582173,29.193985077582173 0 0 1 58.387970155164346,0 z" transform="translate(728.1412821064714 157.65430995345588)" data-type="pcb_plated_hole" data-pcb-layer="top"/><path class="pcb-hole-inner" fill="#FF26E2" d="M17.516391046549305,-20.43578955430753 v40.87157910861506 a17.516391046549305,17.516391046549305 0 0 1 -35.03278209309861,0 v-40.87157910861506 a17.516391046549305,17.516391046549305 0 0 1 35.03278209309861,0 z" transform="translate(728.1412821064714 157.65430995345588)" data-type="pcb_plated_hole_drill" data-pcb-layer="drill"/></g><g data-type="pcb_plated_hole" data-pcb-layer="through"><path class="pcb-hole-outer" fill="rgb(200, 52, 52)" d="M29.193985077582173,-32.11338358534039 v64.22676717068077 a29.193985077582173,29.193985077582173 0 0 1 -58.387970155164346,0 v-64.22676717068077 a29.193985077582173,29.193985077582173 0 0 1 58.387970155164346,0 z" transform="translate(71.85871789352848 391.2061905741145)" data-type="pcb_plated_hole" data-pcb-layer="top"/><path class="pcb-hole-inner" fill="#FF26E2" d="M17.516391046549305,-32.11338358534039 v64.22676717068077 a17.516391046549305,17.516391046549305 0 0 1 -35.03278209309861,0 v-64.22676717068077 a17.516391046549305,17.516391046549305 0 0 1 35.03278209309861,0 z" transform="translate(71.85871789352848 391.2061905741145)" data-type="pcb_plated_hole_drill" data-pcb-layer="drill"/></g><g data-type="pcb_plated_hole" data-pcb-layer="through"><path class="pcb-hole-outer" fill="rgb(200, 52, 52)" d="M29.193985077582173,-20.435789554307522 v40.871579108615045 a29.193985077582173,29.193985077582173 0 0 1 -58.387970155164346,0 v-40.871579108615045 a29.193985077582173,29.193985077582173 0 0 1 58.387970155164346,0 z" transform="translate(71.85871789352848 157.65430995345588)" data-type="pcb_plated_hole" data-pcb-layer="top"/><path class="pcb-hole-inner" fill="#FF26E2" d="M17.516391046549305,-20.43578955430753 v40.87157910861506 a17.516391046549305,17.516391046549305 0 0 1 -35.03278209309861,0 v-40.87157910861506 a17.516391046549305,17.516391046549305 0 0 1 35.03278209309861,0 z" transform="translate(71.85871789352848 157.65430995345588)" data-type="pcb_plated_hole_drill" data-pcb-layer="drill"/></g><rect x="364.967147841197" y="521.578256557426" width="70.06570431760588" height="70.06570431760576" class="pcb-note-rect" data-type="pcb_note_rect" data-pcb-note-rect-id="TYPE_C_16P_CB1_6_073_cable_insert_center" data-pcb-layer="overlay" fill="none" stroke="#33dd88" stroke-width="8.758213039700731" stroke-dasharray="11.677617386267643 5.838808693133822"/></svg>