<svg xmlns="http://www.w3.org/2000/svg" width="800" height="644.9565841825182" data-software-used-string="@tscircuit/core@0.0.1081"><style></style><rect class="boundary" x="0" y="0" fill="#0e1015" width="800" height="644.9565841825182" data-type="pcb_background" data-pcb-layer="global"/><rect class="pcb-boundary" fill="none" stroke="#fff" stroke-width="0.3" x="72.53277290528428" y="58.47561181784806" width="654.9344541894316" height="528.0053605468221" data-type="pcb_boundary" data-pcb-layer="global"/><rect class="pcb-pad" fill="rgb(200, 52, 52)" x="288.9151257601649" y="58.49046462325217" width="17.54264845998733" height="58.47549486662443" data-type="pcb_smtpad" data-pcb-layer="top"/><rect class="pcb-pad" fill="rgb(200, 52, 52)" x="318.1454467907752" y="58.49046462325217" width="17.54264845998733" height="58.47549486662443" data-type="pcb_smtpad" data-pcb-layer="top"/><rect class="pcb-pad" fill="rgb(200, 52, 52)" x="347.39062062678966" y="58.57958145566361" width="17.54264845998733" height="58.47549486662443" data-type="pcb_smtpad" data-pcb-layer="top"/><rect class="pcb-pad" fill="rgb(200, 52, 52)" x="376.6209416573933" y="58.49046462325217" width="17.54264845998733" height="58.47549486662443" data-type="pcb_smtpad" data-pcb-layer="top"/><rect class="pcb-pad" fill="rgb(200, 52, 52)" x="405.86611549340773" y="58.57958145566361" width="17.54264845998733" height="58.47549486662443" data-type="pcb_smtpad" data-pcb-layer="top"/><rect class="pcb-pad" fill="rgb(200, 52, 52)" x="435.09643652401803" y="58.49046462325217" width="17.54264845998733" height="58.47549486662443" data-type="pcb_smtpad" data-pcb-layer="top"/><rect class="pcb-pad" fill="rgb(200, 52, 52)" x="464.3416103600391" y="58.49046462325217" width="17.54264845998733" height="58.47549486662443" data-type="pcb_smtpad" data-pcb-layer="top"/><rect class="pcb-pad" fill="rgb(200, 52, 52)" x="493.5719313906494" y="58.49046462325217" width="17.54264845998733" height="58.47549486662443" data-type="pcb_smtpad" data-pcb-layer="top"/><rect class="pcb-pad" fill="rgb(200, 52, 52)" x="523.38819559436" y="58.49046462325217" width="35.08529691997466" height="58.47549486662443" data-type="pcb_smtpad" data-pcb-layer="top"/><rect class="pcb-pad" fill="rgb(200, 52, 52)" x="570.1596798044186" y="58.49046462325217" width="35.08529691997466" height="58.47549486662443" data-type="pcb_smtpad" data-pcb-layer="top"/><rect class="pcb-pad" fill="rgb(200, 52, 52)" x="241.54136029106957" y="58.47561181784807" width="35.08529691997466" height="58.47549486662443" data-type="pcb_smtpad" data-pcb-layer="top"/><rect class="pcb-pad" fill="rgb(200, 52, 52)" x="194.75502327560682" y="58.47561181784807" width="35.08529691997466" height="58.47549486662443" data-type="pcb_smtpad" data-pcb-layer="top"/><path class="pcb-silkscreen pcb-silkscreen-top" d="M 670.6834667633466 132.6326986276215 L 670.5111742206907 514.8830131661011" fill="none" stroke="#f2eda1" stroke-width="5.847561181784807" stroke-linecap="round" stroke-linejoin="round" data-pcb-component-id="pcb_component_0" data-pcb-silkscreen-path-id="pcb_silkscreen_path_0" data-type="pcb_silkscreen_path" data-pcb-layer="top"/><path class="pcb-silkscreen pcb-silkscreen-top" d="M 130.427523080693 132.6326986276215 L 129.90470433055833 512.3105072705234" fill="none" stroke="#f2eda1" stroke-width="5.847561181784807" stroke-linecap="round" stroke-linejoin="round" data-pcb-component-id="pcb_component_0" data-pcb-silkscreen-path-id="pcb_silkscreen_path_1" data-type="pcb_silkscreen_path" data-pcb-layer="top"/><path class="pcb-silkscreen pcb-silkscreen-top" d="M 670.6834667633466 132.63121334708643 L 130.3695971396249 132.63121334708643" fill="none" stroke="#f2eda1" stroke-width="5.847561181784807" stroke-linecap="round" stroke-linejoin="round" data-pcb-component-id="pcb_component_0" data-pcb-silkscreen-path-id="pcb_silkscreen_path_2" data-type="pcb_silkscreen_path" data-pcb-layer="top"/><path class="pcb-silkscreen pcb-silkscreen-top" d="M 659.9270650914077 512.3506098450973 L 140.07887603073925 512.3506098450973 L 140.07887603073925 137.2192449356802 L 185.7661054464699 137.2192449356802" fill="none" stroke="#f2eda1" stroke-width="5.847561181784807" stroke-linecap="round" stroke-linejoin="round" data-pcb-component-id="pcb_component_0" data-pcb-silkscreen-path-id="pcb_silkscreen_path_3" data-type="pcb_silkscreen_path" data-pcb-layer="top"/><path class="pcb-silkscreen pcb-silkscreen-top" d="M 614.2442915172958 137.2192449356802 L 659.9270650914077 137.2192449356802 L 659.9270650914077 512.3506098450973" fill="none" stroke="#f2eda1" stroke-width="5.847561181784807" stroke-linecap="round" stroke-linejoin="round" data-pcb-component-id="pcb_component_0" data-pcb-silkscreen-path-id="pcb_silkscreen_path_4" data-type="pcb_silkscreen_path" data-pcb-layer="top"/><path class="pcb-silkscreen pcb-silkscreen-top" d="M 332.0305919205808 162.40069121377724 L 332.0305919205808 136.4439284937087" fill="none" stroke="#f2eda1" stroke-width="5.847561181784807" stroke-linecap="round" stroke-linejoin="round" data-pcb-component-id="pcb_component_0" data-pcb-silkscreen-path-id="pcb_silkscreen_path_5" data-type="pcb_silkscreen_path" data-pcb-layer="top"/><path class="pcb-silkscreen pcb-silkscreen-top" d="M 229.6962479831882 162.40069121377724 L 332.0305919205808 162.40069121377724" fill="none" stroke="#f2eda1" stroke-width="5.847561181784807" stroke-linecap="round" stroke-linejoin="round" data-pcb-component-id="pcb_component_0" data-pcb-silkscreen-path-id="pcb_silkscreen_path_6" data-type="pcb_silkscreen_path" data-pcb-layer="top"/><path class="pcb-silkscreen pcb-silkscreen-top" d="M 580.3680129570236 162.2729570873204 L 580.3680129570236 136.4439284937087" fill="none" stroke="#f2eda1" stroke-width="5.847561181784807" stroke-linecap="round" stroke-linejoin="round" data-pcb-component-id="pcb_component_0" data-pcb-silkscreen-path-id="pcb_silkscreen_path_7" data-type="pcb_silkscreen_path" data-pcb-layer="top"/><path class="pcb-silkscreen pcb-silkscreen-top" d="M 580.3680129570236 162.2729570873204 L 478.0381248612429 162.2729570873204" fill="none" stroke="#f2eda1" stroke-width="5.847561181784807" stroke-linecap="round" stroke-linejoin="round" data-pcb-component-id="pcb_component_0" data-pcb-silkscreen-path-id="pcb_silkscreen_path_8" data-type="pcb_silkscreen_path" data-pcb-layer="top"/><path class="pcb-silkscreen pcb-silkscreen-top" d="M 478.0381248612429 162.2729570873204 L 478.0381248612429 136.4439284937087" fill="none" stroke="#f2eda1" stroke-width="5.847561181784807" stroke-linecap="round" stroke-linejoin="round" data-pcb-component-id="pcb_component_0" data-pcb-silkscreen-path-id="pcb_silkscreen_path_9" data-type="pcb_silkscreen_path" data-pcb-layer="top"/><path class="pcb-silkscreen pcb-silkscreen-top" d="M 229.6962479831882 162.40069121377724 L 229.6962479831882 136.5315600455784" fill="none" stroke="#f2eda1" stroke-width="5.847561181784807" stroke-linecap="round" stroke-linejoin="round" data-pcb-component-id="pcb_component_0" data-pcb-silkscreen-path-id="pcb_silkscreen_path_10" data-type="pcb_silkscreen_path" data-pcb-layer="top"/><g data-type="pcb_plated_hole" data-pcb-layer="through"><path class="pcb-hole-outer" fill="rgb(200, 52, 52)" d="M35.08529691997466,-35.08529691997466 v70.17059383994932 a35.08529691997466,35.08529691997466 0 0 1 -70.17059383994932,0 v-70.17059383994932 a35.08529691997466,35.08529691997466 0 0 1 70.17059383994932,0 z" transform="translate(72.53277290528428 393.0870383108024)" data-type="pcb_plated_hole" data-pcb-layer="top"/><path class="pcb-hole-inner" fill="#FF26E2" d="M17.54264845998733,-35.08529691997465 v70.1705938399493 a17.54264845998733,17.54264845998733 0 0 1 -35.08529691997466,0 v-70.1705938399493 a17.54264845998733,17.54264845998733 0 0 1 35.08529691997466,0 z" transform="translate(72.53277290528428 393.0870383108024)" data-type="pcb_plated_hole_drill" data-pcb-layer="drill"/></g><g data-type="pcb_plated_hole" data-pcb-layer="through"><path class="pcb-hole-outer" fill="rgb(200, 52, 52)" d="M35.08529691997466,-35.08529691997466 v70.17059383994932 a35.08529691997466,35.08529691997466 0 0 1 -70.17059383994932,0 v-70.17059383994932 a35.08529691997466,35.08529691997466 0 0 1 70.17059383994932,0 z" transform="translate(727.4672270947158 393.0870383108024)" data-type="pcb_plated_hole" data-pcb-layer="top"/><path class="pcb-hole-inner" fill="#FF26E2" d="M17.54264845998733,-35.08529691997465 v70.1705938399493 a17.54264845998733,17.54264845998733 0 0 1 -35.08529691997466,0 v-70.1705938399493 a17.54264845998733,17.54264845998733 0 0 1 35.08529691997466,0 z" transform="translate(727.4672270947158 393.0870383108024)" data-type="pcb_plated_hole_drill" data-pcb-layer="drill"/></g><g data-type="pcb_plated_hole" data-pcb-layer="through"><path class="pcb-hole-outer" fill="rgb(200, 52, 52)" d="M35.08529691997466,-23.39019794664977 v46.78039589329954 a35.08529691997466,35.08529691997466 0 0 1 -70.17059383994932,0 v-46.78039589329954 a35.08529691997466,35.08529691997466 0 0 1 70.17059383994932,0 z" transform="translate(727.4672270947158 159.18505884430354)" data-type="pcb_plated_hole" data-pcb-layer="top"/><path class="pcb-hole-inner" fill="#FF26E2" d="M17.54264845998733,-23.390197946649774 v46.78039589329955 a17.54264845998733,17.54264845998733 0 0 1 -35.08529691997466,0 v-46.78039589329955 a17.54264845998733,17.54264845998733 0 0 1 35.08529691997466,0 z" transform="translate(727.4672270947158 159.18505884430354)" data-type="pcb_plated_hole_drill" data-pcb-layer="drill"/></g><g data-type="pcb_plated_hole" data-pcb-layer="through"><path class="pcb-hole-outer" fill="rgb(200, 52, 52)" d="M35.08529691997466,-23.39019794664977 v46.78039589329954 a35.08529691997466,35.08529691997466 0 0 1 -70.17059383994932,0 v-46.78039589329954 a35.08529691997466,35.08529691997466 0 0 1 70.17059383994932,0 z" transform="translate(72.53277290528428 159.18505884430354)" data-type="pcb_plated_hole" data-pcb-layer="top"/><path class="pcb-hole-inner" fill="#FF26E2" d="M17.54264845998733,-23.390197946649774 v46.78039589329955 a17.54264845998733,17.54264845998733 0 0 1 -35.08529691997466,0 v-46.78039589329955 a17.54264845998733,17.54264845998733 0 0 1 35.08529691997466,0 z" transform="translate(72.53277290528428 159.18505884430354)" data-type="pcb_plated_hole_drill" data-pcb-layer="drill"/></g><rect x="364.9146329092912" y="516.3102381832525" width="70.17073418141769" height="70.17073418141763" class="pcb-note-rect" data-type="pcb_note_rect" data-pcb-note-rect-id="TYPE_C_16P_CB0_8_073_cable_insert_center" data-pcb-layer="overlay" fill="none" stroke="#33dd88" stroke-width="8.77134177267721" stroke-dasharray="11.695122363569615 5.847561181784807"/></svg>