<svg xmlns="http://www.w3.org/2000/svg" width="800" height="337.80146499923006" data-software-used-string="@tscircuit/core@0.0.1081"><style></style><rect class="boundary" x="0" y="0" fill="#0e1015" width="800" height="337.80146499923006" data-type="pcb_background" data-pcb-layer="global"/><rect class="pcb-boundary" fill="none" stroke="#fff" stroke-width="0.3" x="126.9796927726317" y="53.61740780468392" width="546.0406144547367" height="230.56664938986222" data-type="pcb_boundary" data-pcb-layer="global"/><rect class="pcb-pad" fill="rgb(200, 52, 52)" x="511.51869614975226" y="191.96284496723575" width="16.08519017096049" height="46.64718768400124" data-type="pcb_smtpad" data-pcb-layer="top"/><rect class="pcb-pad" fill="rgb(200, 52, 52)" x="431.0995547057356" y="191.96284496723575" width="16.08519017096049" height="46.64718768400124" data-type="pcb_smtpad" data-pcb-layer="top"/><rect class="pcb-pad" fill="rgb(200, 52, 52)" x="404.28409501002125" y="191.96284496723575" width="16.08519017096049" height="46.64718768400124" data-type="pcb_smtpad" data-pcb-layer="top"/><rect class="pcb-pad" fill="rgb(200, 52, 52)" x="377.4822541358731" y="191.96284496723575" width="16.08519017096049" height="46.64718768400124" data-type="pcb_smtpad" data-pcb-layer="top"/><rect class="pcb-pad" fill="rgb(200, 52, 52)" x="350.66679444014653" y="191.96284496723575" width="16.08519017096049" height="46.64718768400124" data-type="pcb_smtpad" data-pcb-layer="top"/><rect class="pcb-pad" fill="rgb(200, 52, 52)" x="323.86495356600454" y="191.96284496723575" width="16.08519017096049" height="46.64718768400124" data-type="pcb_smtpad" data-pcb-layer="top"/><rect class="pcb-pad" fill="rgb(200, 52, 52)" x="297.0494938702841" y="191.96284496723575" width="16.08519017096049" height="46.64718768400124" data-type="pcb_smtpad" data-pcb-layer="top"/><rect class="pcb-pad" fill="rgb(200, 52, 52)" x="511.51869614975226" y="99.20505116957763" width="16.08519017096049" height="46.64718768400124" data-type="pcb_smtpad" data-pcb-layer="top"/><rect class="pcb-pad" fill="rgb(200, 52, 52)" x="431.0995547057356" y="99.20505116957763" width="16.08519017096049" height="46.64718768400124" data-type="pcb_smtpad" data-pcb-layer="top"/><rect class="pcb-pad" fill="rgb(200, 52, 52)" x="404.28409501002125" y="99.20505116957763" width="16.08519017096049" height="46.64718768400124" data-type="pcb_smtpad" data-pcb-layer="top"/><rect class="pcb-pad" fill="rgb(200, 52, 52)" x="377.4822541358731" y="99.20505116957763" width="16.08519017096049" height="46.64718768400124" data-type="pcb_smtpad" data-pcb-layer="top"/><rect class="pcb-pad" fill="rgb(200, 52, 52)" x="350.66679444014653" y="99.20505116957763" width="16.08519017096049" height="46.64718768400124" data-type="pcb_smtpad" data-pcb-layer="top"/><rect class="pcb-pad" fill="rgb(200, 52, 52)" x="323.86495356600454" y="99.20505116957763" width="16.08519017096049" height="46.64718768400124" data-type="pcb_smtpad" data-pcb-layer="top"/><rect class="pcb-pad" fill="rgb(200, 52, 52)" x="297.0494938702841" y="99.20505116957763" width="16.08519017096049" height="46.64718768400124" data-type="pcb_smtpad" data-pcb-layer="top"/><rect class="pcb-pad" fill="rgb(200, 52, 52)" x="216.63035242626736" y="191.96284496723575" width="16.08519017096049" height="46.64718768400124" data-type="pcb_smtpad" data-pcb-layer="top"/><rect class="pcb-pad" fill="rgb(200, 52, 52)" x="216.63035242626736" y="99.20505116957763" width="16.08519017096049" height="46.64718768400124" data-type="pcb_smtpad" data-pcb-layer="top"/><path class="pcb-silkscreen pcb-silkscreen-top" d="M 544.4469639127327 257.4257965494711 L 617.2572697386618 257.4257965494711 L 617.2572697386618 87.19052676959605 L 617.2572697386618 80.38111597840373 L 617.2572697386618 80.38111597840373 L 544.4469639127327 80.38111597840373" fill="none" stroke="#f2eda1" stroke-width="5.361740780468391" stroke-linecap="round" stroke-linejoin="round" data-pcb-component-id="pcb_component_0" data-pcb-silkscreen-path-id="pcb_silkscreen_path_0" data-type="pcb_silkscreen_path" data-pcb-layer="top"/><path class="pcb-silkscreen pcb-silkscreen-top" d="M 199.78999859856074 80.38111597840373 L 126.9796927726317 80.38111597840373 L 126.9796927726317 93.99993756079446" fill="none" stroke="#f2eda1" stroke-width="5.361740780468391" stroke-linecap="round" stroke-linejoin="round" data-pcb-component-id="pcb_component_0" data-pcb-silkscreen-path-id="pcb_silkscreen_path_1" data-type="pcb_silkscreen_path" data-pcb-layer="top"/><path class="pcb-silkscreen pcb-silkscreen-top" d="M 457.15304133392624 80.38111597840373 L 287.0839211773672 80.38111597840373" fill="none" stroke="#f2eda1" stroke-width="5.361740780468391" stroke-linecap="round" stroke-linejoin="round" data-pcb-component-id="pcb_component_0" data-pcb-silkscreen-path-id="pcb_silkscreen_path_2" data-type="pcb_silkscreen_path" data-pcb-layer="top"/><path class="pcb-silkscreen pcb-silkscreen-top" d="M 287.0839211773672 257.4257965494711 L 457.15304133392624 257.4257965494711" fill="none" stroke="#f2eda1" stroke-width="5.361740780468391" stroke-linecap="round" stroke-linejoin="round" data-pcb-component-id="pcb_component_0" data-pcb-silkscreen-path-id="pcb_silkscreen_path_3" data-type="pcb_silkscreen_path" data-pcb-layer="top"/><path class="pcb-silkscreen pcb-silkscreen-top" d="M 126.9796927726317 87.19052676959605 L 126.9796927726317 257.4257965494711 L 199.78999859856074 257.4257965494711" fill="none" stroke="#f2eda1" stroke-width="5.361740780468391" stroke-linecap="round" stroke-linejoin="round" data-pcb-component-id="pcb_component_0" data-pcb-silkscreen-path-id="pcb_silkscreen_path_4" data-type="pcb_silkscreen_path" data-pcb-layer="top"/><g data-type="pcb_plated_hole" data-pcb-layer="through"><path class="pcb-hole-outer" fill="rgb(200, 52, 52)" d="M-8.04259508548025,-32.17038034192098 h16.0851901709605 a32.17038034192098,32.17038034192098 0 0 1 0,64.34076068384196 h-16.0851901709605 a32.17038034192098,32.17038034192098 0 0 1 0,-64.34076068384196 z" transform="translate(500.8081739162784 284.18405719454614)" data-type="pcb_plated_hole" data-pcb-layer="top"/><path class="pcb-hole-inner" fill="#FF26E2" d="M-8.04259508548025,-16.342585898867654 h16.0851901709605 a16.342585898867654,16.342585898867654 0 0 1 0,32.68517179773531 h-16.0851901709605 a16.342585898867654,16.342585898867654 0 0 1 0,-32.68517179773531 z" transform="translate(500.8081739162784 284.18405719454614)" data-type="pcb_plated_hole_drill" data-pcb-layer="drill"/></g><g data-type="pcb_plated_hole" data-pcb-layer="through"><path class="pcb-hole-outer" fill="rgb(200, 52, 52)" d="M-8.04259508548025,-32.17038034192098 h16.0851901709605 a32.17038034192098,32.17038034192098 0 0 1 0,64.34076068384196 h-16.0851901709605 a32.17038034192098,32.17038034192098 0 0 1 0,-64.34076068384196 z" transform="translate(243.43968365228025 284.18405719454614)" data-type="pcb_plated_hole" data-pcb-layer="top"/><path class="pcb-hole-inner" fill="#FF26E2" d="M-8.04259508548025,-16.342585898867654 h16.0851901709605 a16.342585898867654,16.342585898867654 0 0 1 0,32.68517179773531 h-16.0851901709605 a16.342585898867654,16.342585898867654 0 0 1 0,-32.68517179773531 z" transform="translate(243.43968365228025 284.18405719454614)" data-type="pcb_plated_hole_drill" data-pcb-layer="drill"/></g><g data-type="pcb_plated_hole" data-pcb-layer="through"><path class="pcb-hole-outer" fill="rgb(200, 52, 52)" d="M-8.04259508548025,-32.17038034192098 h16.0851901709605 a32.17038034192098,32.17038034192098 0 0 1 0,64.34076068384196 h-16.0851901709605 a32.17038034192098,32.17038034192098 0 0 1 0,-64.34076068384196 z" transform="translate(500.8081739162784 53.61740780468392)" data-type="pcb_plated_hole" data-pcb-layer="top"/><path class="pcb-hole-inner" fill="#FF26E2" d="M-8.04259508548025,-16.342585898867654 h16.0851901709605 a16.342585898867654,16.342585898867654 0 0 1 0,32.68517179773531 h-16.0851901709605 a16.342585898867654,16.342585898867654 0 0 1 0,-32.68517179773531 z" transform="translate(500.8081739162784 53.61740780468392)" data-type="pcb_plated_hole_drill" data-pcb-layer="drill"/></g><g data-type="pcb_plated_hole" data-pcb-layer="through"><path class="pcb-hole-outer" fill="rgb(200, 52, 52)" d="M-8.04259508548025,-32.17038034192098 h16.0851901709605 a32.17038034192098,32.17038034192098 0 0 1 0,64.34076068384196 h-16.0851901709605 a32.17038034192098,32.17038034192098 0 0 1 0,-64.34076068384196 z" transform="translate(243.43968365228025 53.61740780468392)" data-type="pcb_plated_hole" data-pcb-layer="top"/><path class="pcb-hole-inner" fill="#FF26E2" d="M-8.04259508548025,-16.342585898867654 h16.0851901709605 a16.342585898867654,16.342585898867654 0 0 1 0,32.68517179773531 h-16.0851901709605 a16.342585898867654,16.342585898867654 0 0 1 0,-32.68517179773531 z" transform="translate(243.43968365228025 53.61740780468392)" data-type="pcb_plated_hole_drill" data-pcb-layer="drill"/></g><circle class="pcb-hole" cx="573.1922106266795" cy="168.9007324996211" r="21.44692022794732" fill="#FF26E2" data-type="pcb_hole" data-pcb-layer="drill"/><circle class="pcb-hole" cx="171.05564694187905" cy="168.9007324996211" r="16.08519017096049" fill="#FF26E2" data-type="pcb_hole" data-pcb-layer="drill"/><rect x="608.6794178617477" y="136.7302878168047" width="64.34088936562068" height="64.34088936562068" class="pcb-note-rect" data-type="pcb_note_rect" data-pcb-note-rect-id="TYPE_C_16P_LTH6_8_cable_insert_center" data-pcb-layer="overlay" fill="none" stroke="#33dd88" stroke-width="8.042611170702587" stroke-dasharray="10.723481560936783 5.361740780468391"/></svg>