<svg xmlns="http://www.w3.org/2000/svg" width="800" height="650.5201613379595" data-software-used-string="@tscircuit/core@0.0.1081"><style></style><rect class="boundary" x="0" y="0" fill="#0e1015" width="800" height="650.5201613379595" data-type="pcb_background" data-pcb-layer="global"/><rect class="pcb-boundary" fill="none" stroke="#fff" stroke-width="0.3" x="71.81447953791928" y="58.39595851926103" width="656.3710409241614" height="533.7282442994374" data-type="pcb_boundary" data-pcb-layer="global"/><rect class="pcb-pad" fill="rgb(200, 52, 52)" x="569.3420079799239" y="58.410791092727294" width="35.037505036406394" height="64.23542590007838" data-type="pcb_smtpad" data-pcb-layer="top"/><rect class="pcb-pad" fill="rgb(200, 52, 52)" x="522.6342341421204" y="58.39595851926103" width="35.037505036406394" height="64.23542590007838" data-type="pcb_smtpad" data-pcb-layer="top"/><rect class="pcb-pad" fill="rgb(200, 52, 52)" x="493.4370549071208" y="58.39595851926103" width="17.518752518203197" height="64.23542590007838" data-type="pcb_smtpad" data-pcb-layer="top"/><rect class="pcb-pad" fill="rgb(200, 52, 52)" x="464.2317177567155" y="58.39595851926103" width="17.518752518203197" height="64.23542590007838" data-type="pcb_smtpad" data-pcb-layer="top"/><rect class="pcb-pad" fill="rgb(200, 52, 52)" x="435.0412131797765" y="58.39595851926103" width="17.518752518203197" height="64.23542590007838" data-type="pcb_smtpad" data-pcb-layer="top"/><rect class="pcb-pad" fill="rgb(200, 52, 52)" x="405.8358760293712" y="58.39595851926103" width="17.518752518203197" height="64.23542590007838" data-type="pcb_smtpad" data-pcb-layer="top"/><rect class="pcb-pad" fill="rgb(200, 52, 52)" x="376.6453714524256" y="58.39595851926103" width="17.518752518203197" height="64.23542590007838" data-type="pcb_smtpad" data-pcb-layer="top"/><rect class="pcb-pad" fill="rgb(200, 52, 52)" x="347.4400343020203" y="58.39595851926103" width="17.518752518203197" height="64.23542590007838" data-type="pcb_smtpad" data-pcb-layer="top"/><rect class="pcb-pad" fill="rgb(200, 52, 52)" x="318.24952972508794" y="58.39595851926103" width="17.518752518203197" height="64.23542590007838" data-type="pcb_smtpad" data-pcb-layer="top"/><rect class="pcb-pad" fill="rgb(200, 52, 52)" x="289.04419257468265" y="58.39595851926103" width="17.518752518203197" height="64.23542590007838" data-type="pcb_smtpad" data-pcb-layer="top"/><rect class="pcb-pad" fill="rgb(200, 52, 52)" x="242.32826082148654" y="58.39595851926103" width="35.037505036406394" height="64.23542590007838" data-type="pcb_smtpad" data-pcb-layer="top"/><rect class="pcb-pad" fill="rgb(200, 52, 52)" x="195.62048698368292" y="58.39595851926103" width="35.037505036406394" height="64.23542590007838" data-type="pcb_smtpad" data-pcb-layer="top"/><path class="pcb-silkscreen pcb-silkscreen-top" d="M 136.15521670959527 134.99655928751417 L 667.557376428427 134.99655928751417" fill="none" stroke="#f2eda1" stroke-width="5.839595851926103" stroke-linecap="round" stroke-linejoin="round" data-pcb-component-id="pcb_component_0" data-pcb-silkscreen-path-id="pcb_silkscreen_path_0" data-type="pcb_silkscreen_path" data-pcb-layer="top"/><path class="pcb-silkscreen pcb-silkscreen-top" d="M 667.54551036965 520.1465781376693 L 667.54551036965 134.7325394798636" fill="none" stroke="#f2eda1" stroke-width="5.839595851926103" stroke-linecap="round" stroke-linejoin="round" data-pcb-component-id="pcb_component_0" data-pcb-silkscreen-path-id="pcb_silkscreen_path_1" data-type="pcb_silkscreen_path" data-pcb-layer="top"/><path class="pcb-silkscreen pcb-silkscreen-top" d="M 135.2711953311499 520.0709320130098 L 135.2711953311499 134.65985986988682" fill="none" stroke="#f2eda1" stroke-width="5.839595851926103" stroke-linecap="round" stroke-linejoin="round" data-pcb-component-id="pcb_component_0" data-pcb-silkscreen-path-id="pcb_silkscreen_path_2" data-type="pcb_silkscreen_path" data-pcb-layer="top"/><path class="pcb-silkscreen pcb-silkscreen-top" d="M 614.3128874650881 91.39769284775224 L 680.8844436857256 91.98209624222926 L 680.8844436857256 188.91889685814508 L 686.2241701327223 188.91889685814508" fill="none" stroke="#f2eda1" stroke-width="5.839595851926103" stroke-linecap="round" stroke-linejoin="round" data-pcb-component-id="pcb_component_0" data-pcb-silkscreen-path-id="pcb_silkscreen_path_3" data-type="pcb_silkscreen_path" data-pcb-layer="top"/><path class="pcb-silkscreen pcb-silkscreen-top" d="M 666.0162720455212 515.3512071367948 L 120.28436310322843 515.3512071367948 L 120.28436310322843 418.08067361794076" fill="none" stroke="#f2eda1" stroke-width="5.839595851926103" stroke-linecap="round" stroke-linejoin="round" data-pcb-component-id="pcb_component_0" data-pcb-silkscreen-path-id="pcb_silkscreen_path_4" data-type="pcb_silkscreen_path" data-pcb-layer="top"/><path class="pcb-silkscreen pcb-silkscreen-top" d="M 680.8844436857256 433.597028718518 L 680.8844436857256 515.3512071367948 L 662.781287773056 515.3512071367948" fill="none" stroke="#f2eda1" stroke-width="5.839595851926103" stroke-linecap="round" stroke-linejoin="round" data-pcb-component-id="pcb_component_0" data-pcb-silkscreen-path-id="pcb_silkscreen_path_5" data-type="pcb_silkscreen_path" data-pcb-layer="top"/><path class="pcb-silkscreen pcb-silkscreen-top" d="M 680.8844436857256 433.597028718518 L 686.1188588611435 433.597028718518" fill="none" stroke="#f2eda1" stroke-width="5.839595851926103" stroke-linecap="round" stroke-linejoin="round" data-pcb-component-id="pcb_component_0" data-pcb-silkscreen-path-id="pcb_silkscreen_path_6" data-type="pcb_silkscreen_path" data-pcb-layer="top"/><path class="pcb-silkscreen pcb-silkscreen-top" d="M 680.8844436857256 357.0980310784974 L 680.8844436857256 433.597028718518" fill="none" stroke="#f2eda1" stroke-width="5.839595851926103" stroke-linecap="round" stroke-linejoin="round" data-pcb-component-id="pcb_component_0" data-pcb-silkscreen-path-id="pcb_silkscreen_path_7" data-type="pcb_silkscreen_path" data-pcb-layer="top"/><path class="pcb-silkscreen pcb-silkscreen-top" d="M 680.8844436857256 188.91889685814508 L 680.8844436857256 357.0980310784974 L 685.4899577462677 357.0980310784974" fill="none" stroke="#f2eda1" stroke-width="5.839595851926103" stroke-linecap="round" stroke-linejoin="round" data-pcb-component-id="pcb_component_0" data-pcb-silkscreen-path-id="pcb_silkscreen_path_8" data-type="pcb_silkscreen_path" data-pcb-layer="top"/><path class="pcb-silkscreen pcb-silkscreen-top" d="M 121.45168663484122 189.5018169952808 L 121.45168663484122 91.98209624222926 L 182.11691210215406 91.98209624222926" fill="none" stroke="#f2eda1" stroke-width="5.839595851926103" stroke-linecap="round" stroke-linejoin="round" data-pcb-component-id="pcb_component_0" data-pcb-silkscreen-path-id="pcb_silkscreen_path_9" data-type="pcb_silkscreen_path" data-pcb-layer="top"/><path class="pcb-silkscreen pcb-silkscreen-top" d="M 121.45168663484122 354.7633840152719 L 121.45168663484122 432.4297051869119 L 114.06803156451298 432.4297051869119" fill="none" stroke="#f2eda1" stroke-width="5.839595851926103" stroke-linecap="round" stroke-linejoin="round" data-pcb-component-id="pcb_component_0" data-pcb-silkscreen-path-id="pcb_silkscreen_path_10" data-type="pcb_silkscreen_path" data-pcb-layer="top"/><path class="pcb-silkscreen pcb-silkscreen-top" d="M 113.66161905159811 189.5018169952808 L 121.45168663484122 189.5018169952808 L 121.45168663484122 354.7633840152719 L 114.4848268788503 354.7633840152719" fill="none" stroke="#f2eda1" stroke-width="5.839595851926103" stroke-linecap="round" stroke-linejoin="round" data-pcb-component-id="pcb_component_0" data-pcb-silkscreen-path-id="pcb_silkscreen_path_11" data-type="pcb_silkscreen_path" data-pcb-layer="top"/><g data-type="pcb_plated_hole" data-pcb-layer="through"><path class="pcb-hole-outer" fill="rgb(200, 52, 52)" d="M29.197920863671992,-23.358336690937595 v46.71667338187519 a29.197920863671992,29.197920863671992 0 0 1 -58.395841727343985,0 v-46.71667338187519 a29.197920863671992,29.197920863671992 0 0 1 58.395841727343985,0 z" transform="translate(71.81447953791928 157.6903966872729)" data-type="pcb_plated_hole" data-pcb-layer="top"/><path class="pcb-hole-inner" fill="#FF26E2" d="M17.81095421544188,-23.358336690937595 v46.71667338187519 a17.81095421544188,17.81095421544188 0 0 1 -35.62190843088376,0 v-46.71667338187519 a17.81095421544188,17.81095421544188 0 0 1 35.62190843088376,0 z" transform="translate(71.81447953791928 157.6903966872729)" data-type="pcb_plated_hole_drill" data-pcb-layer="drill"/></g><g data-type="pcb_plated_hole" data-pcb-layer="through"><path class="pcb-hole-outer" fill="rgb(200, 52, 52)" d="M29.197920863671992,-23.358336690937595 v46.71667338187519 a29.197920863671992,29.197920863671992 0 0 1 -58.395841727343985,0 v-46.71667338187519 a29.197920863671992,29.197920863671992 0 0 1 58.395841727343985,0 z" transform="translate(728.1855204620807 157.6903966872729)" data-type="pcb_plated_hole" data-pcb-layer="top"/><path class="pcb-hole-inner" fill="#FF26E2" d="M17.81095421544188,-23.358336690937595 v46.71667338187519 a17.81095421544188,17.81095421544188 0 0 1 -35.62190843088376,0 v-46.71667338187519 a17.81095421544188,17.81095421544188 0 0 1 35.62190843088376,0 z" transform="translate(728.1855204620807 157.6903966872729)" data-type="pcb_plated_hole_drill" data-pcb-layer="drill"/></g><g data-type="pcb_plated_hole" data-pcb-layer="through"><path class="pcb-hole-outer" fill="rgb(200, 52, 52)" d="M29.197920863671992,-35.03750503640639 v70.07501007281277 a29.197920863671992,29.197920863671992 0 0 1 -58.395841727343985,0 v-70.07501007281277 a29.197920863671992,29.197920863671992 0 0 1 58.395841727343985,0 z" transform="translate(71.81447953791928 391.27376359664345)" data-type="pcb_plated_hole" data-pcb-layer="top"/><path class="pcb-hole-inner" fill="#FF26E2" d="M17.81095421544188,-35.03750503640639 v70.07501007281277 a17.81095421544188,17.81095421544188 0 0 1 -35.62190843088376,0 v-70.07501007281277 a17.81095421544188,17.81095421544188 0 0 1 35.62190843088376,0 z" transform="translate(71.81447953791928 391.27376359664345)" data-type="pcb_plated_hole_drill" data-pcb-layer="drill"/></g><g data-type="pcb_plated_hole" data-pcb-layer="through"><path class="pcb-hole-outer" fill="rgb(200, 52, 52)" d="M29.197920863671992,-35.03750503640639 v70.07501007281277 a29.197920863671992,29.197920863671992 0 0 1 -58.395841727343985,0 v-70.07501007281277 a29.197920863671992,29.197920863671992 0 0 1 58.395841727343985,0 z" transform="translate(728.1855204620807 391.27376359664345)" data-type="pcb_plated_hole" data-pcb-layer="top"/><path class="pcb-hole-inner" fill="#FF26E2" d="M17.81095421544188,-35.03750503640639 v70.07501007281277 a17.81095421544188,17.81095421544188 0 0 1 -35.62190843088376,0 v-70.07501007281277 a17.81095421544188,17.81095421544188 0 0 1 35.62190843088376,0 z" transform="translate(728.1855204620807 391.27376359664345)" data-type="pcb_plated_hole_drill" data-pcb-layer="drill"/></g><rect x="364.96242488844337" y="522.0490525955853" width="70.07515022311327" height="70.07515022311316" class="pcb-note-rect" data-type="pcb_note_rect" data-pcb-note-rect-id="TYPEC_302_BRP16SC16_cable_insert_center" data-pcb-layer="overlay" fill="none" stroke="#33dd88" stroke-width="8.759393777889153" stroke-dasharray="11.679191703852206 5.839595851926103"/></svg>