<svg xmlns="http://www.w3.org/2000/svg" width="800" height="1572.054037862286" data-software-used-string="@tscircuit/core@0.0.1081"><style></style><rect class="boundary" x="0" y="0" fill="#0e1015" width="800" height="1572.054037862286" data-type="pcb_background" data-pcb-layer="global"/><rect class="pcb-boundary" fill="none" stroke="#fff" stroke-width="0.3" x="57.397044052231365" y="112.78906857958731" width="685.2059118955372" height="1346.4759007031112" data-type="pcb_boundary" data-pcb-layer="global"/><rect class="pcb-pad" fill="rgb(200, 52, 52)" x="566.4510948486067" y="112.78906857958734" width="68.8763151097719" height="143.4923231453581" data-type="pcb_smtpad" data-pcb-layer="top"/><rect class="pcb-pad" fill="rgb(200, 52, 52)" x="422.96606112785014" y="112.78906857958734" width="68.8763151097719" height="143.4923231453581" data-type="pcb_smtpad" data-pcb-layer="top"/><rect class="pcb-pad" fill="rgb(200, 52, 52)" x="308.1722026115631" y="112.78906857958734" width="68.8763151097719" height="143.4923231453581" data-type="pcb_smtpad" data-pcb-layer="top"/><rect class="pcb-pad" fill="rgb(200, 52, 52)" x="164.67259004161494" y="112.78906857958734" width="68.8763151097719" height="143.4923231453581" data-type="pcb_smtpad" data-pcb-layer="top"/><path class="pcb-silkscreen pcb-silkscreen-top" d="M 720.73468216387 512.7342831010305 L 742.6029559477686 512.7342831010305 L 742.6029559477686 556.4708306688342" fill="none" stroke="#f2eda1" stroke-width="5.7397044052231365" stroke-linecap="round" stroke-linejoin="round" data-pcb-component-id="pcb_component_0" data-pcb-silkscreen-path-id="pcb_silkscreen_path_0" data-type="pcb_silkscreen_path" data-pcb-layer="top"/><path class="pcb-silkscreen pcb-silkscreen-top" d="M 79.2653178361299 512.7342831010305 L 57.397044052231365 512.7342831010305 L 57.397044052231365 556.4708306688342" fill="none" stroke="#f2eda1" stroke-width="5.7397044052231365" stroke-linecap="round" stroke-linejoin="round" data-pcb-component-id="pcb_component_0" data-pcb-silkscreen-path-id="pcb_silkscreen_path_1" data-type="pcb_silkscreen_path" data-pcb-layer="top"/><path class="pcb-silkscreen pcb-silkscreen-top" d="M 79.2653178361299 512.7342831010305 L 720.73468216387 512.7342831010305" fill="none" stroke="#f2eda1" stroke-width="5.7397044052231365" stroke-linecap="round" stroke-linejoin="round" data-pcb-component-id="pcb_component_0" data-pcb-silkscreen-path-id="pcb_silkscreen_path_2" data-type="pcb_silkscreen_path" data-pcb-layer="top"/><path class="pcb-silkscreen pcb-silkscreen-top" d="M 57.39850193714534 476.2871601278707 L 57.39850193714534 1365.594044903304" fill="none" stroke="#f2eda1" stroke-width="5.7397044052231365" stroke-linecap="round" stroke-linejoin="round" data-pcb-component-id="pcb_component_0" data-pcb-silkscreen-path-id="pcb_silkscreen_path_3" data-type="pcb_silkscreen_path" data-pcb-layer="top"/><path class="pcb-silkscreen pcb-silkscreen-top" d="M 57.397044052231365 1365.594044903304 L 742.6029559477686 1365.594044903304 L 742.6029559477686 471.1481157886502" fill="none" stroke="#f2eda1" stroke-width="5.7397044052231365" stroke-linecap="round" stroke-linejoin="round" data-pcb-component-id="pcb_component_0" data-pcb-silkscreen-path-id="pcb_silkscreen_path_4" data-type="pcb_silkscreen_path" data-pcb-layer="top"/><g data-type="pcb_plated_hole" data-pcb-layer="through"><path class="pcb-hole-outer" fill="rgb(200, 52, 52)" d="M43.04769694360744,-71.74616157267906 v143.4923231453581 a43.04769694360744,43.04769694360744 0 0 1 -86.09539388721488,0 v-143.4923231453581 a43.04769694360744,43.04769694360744 0 0 1 86.09539388721488,0 z" transform="translate(72.84333476825651 345.2524636147397)" data-type="pcb_plated_hole" data-pcb-layer="top"/><path class="pcb-hole-inner" fill="#FF26E2" d="M28.698464629071626,-71.74616157267907 v143.49232314535814 a28.698464629071626,28.698464629071626 0 0 1 -57.39692925814325,0 v-143.49232314535814 a28.698464629071626,28.698464629071626 0 0 1 57.39692925814325,0 z" transform="translate(72.84333476825651 345.2524636147397)" data-type="pcb_plated_hole_drill" data-pcb-layer="drill"/></g><g data-type="pcb_plated_hole" data-pcb-layer="through"><path class="pcb-hole-outer" fill="rgb(200, 52, 52)" d="M43.04769694360744,-71.74616157267906 v143.4923231453581 a43.04769694360744,43.04769694360744 0 0 1 -86.09539388721488,0 v-143.4923231453581 a43.04769694360744,43.04769694360744 0 0 1 86.09539388721488,0 z" transform="translate(727.156665231737 345.2524636147397)" data-type="pcb_plated_hole" data-pcb-layer="top"/><path class="pcb-hole-inner" fill="#FF26E2" d="M28.698464629071626,-71.74616157267907 v143.49232314535814 a28.698464629071626,28.698464629071626 0 0 1 -57.39692925814325,0 v-143.49232314535814 a28.698464629071626,28.698464629071626 0 0 1 57.39692925814325,0 z" transform="translate(727.156665231737 345.2524636147397)" data-type="pcb_plated_hole_drill" data-pcb-layer="drill"/></g><circle class="pcb-hole" cx="270.8532644568726" cy="345.2524636147397" r="34.43815755488595" fill="#FF26E2" data-type="pcb_hole" data-pcb-layer="drill"/><circle class="pcb-hole" cx="529.1467355431143" cy="345.2524636147397" r="34.43815755488595" fill="#FF26E2" data-type="pcb_hole" data-pcb-layer="drill"/><rect x="365.56177356865794" y="1390.3885164200208" width="68.87645286267764" height="68.87645286267775" class="pcb-note-rect" data-type="pcb_note_rect" data-pcb-note-rect-id="U217_041N_4BV81_cable_insert_center" data-pcb-layer="overlay" fill="none" stroke="#33dd88" stroke-width="8.609556607834703" stroke-dasharray="11.479408810446273 5.7397044052231365"/></svg>