<svg xmlns="http://www.w3.org/2000/svg" width="800" height="817.7137994314764" data-software-used-string="@tscircuit/core@0.0.1081"><style></style><rect class="boundary" x="0" y="0" fill="#0e1015" width="800" height="817.7137994314764" data-type="pcb_background" data-pcb-layer="global"/><rect class="pcb-boundary" fill="none" stroke="#fff" stroke-width="0.3" x="73.05939542546696" y="74.67709477190644" width="653.881209149066" height="668.3596098876634" data-type="pcb_boundary" data-pcb-layer="global"/><rect class="pcb-pad" fill="rgb(200, 52, 52)" x="516.5190178903093" y="74.85709851034896" width="21.917774792002838" height="88.40224837367126" data-type="pcb_smtpad" data-pcb-layer="top"/><rect class="pcb-pad" fill="rgb(200, 52, 52)" x="479.96155760730113" y="74.85709851034896" width="21.917774792002838" height="88.40224837367126" data-type="pcb_smtpad" data-pcb-layer="top"/><rect class="pcb-pad" fill="rgb(200, 52, 52)" x="443.45976858364105" y="74.85709851034896" width="21.917774792002838" height="88.40224837367126" data-type="pcb_smtpad" data-pcb-layer="top"/><rect class="pcb-pad" fill="rgb(200, 52, 52)" x="406.9208653870823" y="74.85709851034896" width="21.917774792002838" height="88.40224837367126" data-type="pcb_smtpad" data-pcb-layer="top"/><rect class="pcb-pad" fill="rgb(200, 52, 52)" x="370.40051927695623" y="74.85709851034896" width="21.917774792002838" height="88.40224837367126" data-type="pcb_smtpad" data-pcb-layer="top"/><rect class="pcb-pad" fill="rgb(200, 52, 52)" x="333.8616160803975" y="74.85709851034896" width="21.917774792002838" height="88.40224837367126" data-type="pcb_smtpad" data-pcb-layer="top"/><rect class="pcb-pad" fill="rgb(200, 52, 52)" x="297.3412699702797" y="74.85709851034896" width="21.917774792002838" height="88.40224837367126" data-type="pcb_smtpad" data-pcb-layer="top"/><rect class="pcb-pad" fill="rgb(200, 52, 52)" x="260.80236677371266" y="74.85709851034896" width="21.917774792002838" height="88.40224837367126" data-type="pcb_smtpad" data-pcb-layer="top"/><polygon class="pcb-pad" fill="rgb(200, 52, 52)" points="187.7459010300114,163.25934688401443 187.7459010300114,74.85709851035475 165.8299819466509,74.85709851035475 165.82812623801343,74.85709851035475 143.91220715465292,74.85709851035475 143.91220715465292,163.25934688401443 165.82812623801343,163.25934688401443 165.8299819466509,163.25934688401443" data-type="pcb_smtpad" data-pcb-layer="top"/><polygon class="pcb-pad" fill="rgb(200, 52, 52)" points="246.20072330993068,163.25934688401443 246.20072330993068,74.85709851035475 224.28480422657017,74.85709851035475 224.2829485179244,74.85709851035475 202.3670294345722,74.85709851035475 202.3670294345722,163.25934688401443 224.2829485179244,163.25934688401443 224.28480422657017,163.25934688401443" data-type="pcb_smtpad" data-pcb-layer="top"/><polygon class="pcb-pad" fill="rgb(200, 52, 52)" points="596.873985730115,163.2612025926685 596.873985730115,74.85709851035475 574.9580666467544,74.85709851035475 574.9580666467544,74.85709851035475 553.0421475633939,74.85709851035475 553.0421475633939,163.2612025926685 574.9580666467544,163.2612025926685 574.9580666467544,163.2612025926685" data-type="pcb_smtpad" data-pcb-layer="top"/><polygon class="pcb-pad" fill="rgb(200, 52, 52)" points="655.341797970538,163.07934314556613 655.341797970538,74.67709477190644 633.4240231785317,74.67709477190644 633.4240231785317,74.67709477190644 611.5081040951712,74.67709477190644 611.5081040951712,163.07934314556613 633.4240231785317,163.07934314556613 633.4240231785317,163.07934314556613" data-type="pcb_smtpad" data-pcb-layer="top"/><path class="pcb-silkscreen pcb-silkscreen-top" d="M 726.9406045745329 366.77305814167545 L 726.9406045745329 259.29783632696257" fill="none" stroke="#f2eda1" stroke-width="7.3059395425466995" stroke-linecap="round" stroke-linejoin="round" data-pcb-component-id="pcb_component_0" data-pcb-silkscreen-path-id="pcb_silkscreen_path_0" data-type="pcb_silkscreen_path" data-pcb-layer="top"/><path class="pcb-silkscreen pcb-silkscreen-top" d="M 73.05939542546696 566.3044186497245 L 73.05939542546696 652.9400323944835 L 726.9406045745329 652.9400323944835 L 726.9406045745329 566.1578176668586" fill="none" stroke="#f2eda1" stroke-width="7.3059395425466995" stroke-linecap="round" stroke-linejoin="round" data-pcb-component-id="pcb_component_0" data-pcb-silkscreen-path-id="pcb_silkscreen_path_1" data-type="pcb_silkscreen_path" data-pcb-layer="top"/><path class="pcb-silkscreen pcb-silkscreen-top" d="M 73.05939542546696 259.44814872711186 L 73.05939542546696 366.626457158826" fill="none" stroke="#f2eda1" stroke-width="7.3059395425466995" stroke-linecap="round" stroke-linejoin="round" data-pcb-component-id="pcb_component_0" data-pcb-silkscreen-path-id="pcb_silkscreen_path_2" data-type="pcb_silkscreen_path" data-pcb-layer="top"/><g data-type="pcb_plated_hole" data-pcb-layer="through"><path class="pcb-hole-outer" fill="rgb(200, 52, 52)" d="M40.182587118671876,-40.182587118671876 v80.36517423734375 a40.182587118671876,40.182587118671876 0 0 1 -80.36517423734375,0 v-80.36517423734375 a40.182587118671876,40.182587118671876 0 0 1 80.36517423734375,0 z" transform="translate(84.01921067578468 163.2612025926685)" data-type="pcb_plated_hole" data-pcb-layer="top"/><path class="pcb-hole-inner" fill="#FF26E2" d="M21.917774792002838,-40.182587118671876 v80.36517423734375 a21.917774792002838,21.917774792002838 0 0 1 -43.835549584005676,0 v-80.36517423734375 a21.917774792002838,21.917774792002838 0 0 1 43.835549584005676,0 z" transform="translate(84.01921067578468 163.2612025926685)" data-type="pcb_plated_hole_drill" data-pcb-layer="drill"/></g><g data-type="pcb_plated_hole" data-pcb-layer="through"><path class="pcb-hole-outer" fill="rgb(200, 52, 52)" d="M40.182587118671876,-40.182587118671876 v80.36517423734375 a40.182587118671876,40.182587118671876 0 0 1 -80.36517423734375,0 v-80.36517423734375 a40.182587118671876,40.182587118671876 0 0 1 80.36517423734375,0 z" transform="translate(715.2385058666895 163.2612025926685)" data-type="pcb_plated_hole" data-pcb-layer="top"/><path class="pcb-hole-inner" fill="#FF26E2" d="M21.917774792002838,-40.182587118671876 v80.36517423734375 a21.917774792002838,21.917774792002838 0 0 1 -43.835549584005676,0 v-80.36517423734375 a21.917774792002838,21.917774792002838 0 0 1 43.835549584005676,0 z" transform="translate(715.2385058666895 163.2612025926685)" data-type="pcb_plated_hole_drill" data-pcb-layer="drill"/></g><g data-type="pcb_plated_hole" data-pcb-layer="through"><path class="pcb-hole-outer" fill="rgb(200, 52, 52)" d="M40.182587118671876,-43.835549584005676 v87.67109916801135 a40.182587118671876,40.182587118671876 0 0 1 -80.36517423734375,0 v-87.67109916801135 a40.182587118671876,40.182587118671876 0 0 1 80.36517423734375,0 z" transform="translate(715.2570629531306 466.465437904267)" data-type="pcb_plated_hole" data-pcb-layer="top"/><path class="pcb-hole-inner" fill="#FF26E2" d="M21.917774792002838,-43.83554958400568 v87.67109916801137 a21.917774792002838,21.917774792002838 0 0 1 -43.835549584005676,0 v-87.67109916801137 a21.917774792002838,21.917774792002838 0 0 1 43.835549584005676,0 z" transform="translate(715.2570629531306 466.465437904267)" data-type="pcb_plated_hole_drill" data-pcb-layer="drill"/></g><g data-type="pcb_plated_hole" data-pcb-layer="through"><path class="pcb-hole-outer" fill="rgb(200, 52, 52)" d="M40.182587118671876,-43.835549584005676 v87.67109916801135 a40.182587118671876,40.182587118671876 0 0 1 -80.36517423734375,0 v-87.67109916801135 a40.182587118671876,40.182587118671876 0 0 1 80.36517423734375,0 z" transform="translate(84.01921067578468 466.465437904267)" data-type="pcb_plated_hole" data-pcb-layer="top"/><path class="pcb-hole-inner" fill="#FF26E2" d="M21.917774792002838,-43.83554958400568 v87.67109916801137 a21.917774792002838,21.917774792002838 0 0 1 -43.835549584005676,0 v-87.67109916801137 a21.917774792002838,21.917774792002838 0 0 1 43.835549584005676,0 z" transform="translate(84.01921067578468 466.465437904267)" data-type="pcb_plated_hole_drill" data-pcb-layer="drill"/></g><circle class="pcb-hole" cx="610.7621092203622" cy="204.1795781886012" r="23.743792097508795" fill="#FF26E2" data-type="pcb_hole" data-pcb-layer="drill"/><circle class="pcb-hole" cx="188.49560732210364" cy="204.216692361475" r="23.743792097508795" fill="#FF26E2" data-type="pcb_hole" data-pcb-layer="drill"/><rect x="355.8024995591774" y="655.3654301490096" width="87.67127451056035" height="87.67127451056024" class="pcb-note-rect" data-type="pcb_note_rect" data-pcb-note-rect-id="UC09_0B16F00P11_cable_insert_center" data-pcb-layer="overlay" fill="none" stroke="#33dd88" stroke-width="10.958909313820048" stroke-dasharray="14.611879085093399 7.3059395425466995"/></svg>